<?xml version="1.0" encoding="utf-8"?>
<!-- Generator: Adobe Illustrator 21.0.2, SVG Export Plug-In . SVG Version: 6.00 Build 0)  -->
<svg version="1.1" id="Layer_1" xmlns="http://www.w3.org/2000/svg" xmlns:xlink="http://www.w3.org/1999/xlink" x="0px" y="0px"
	 viewBox="0 0 223.2 80.9" style="enable-background:new 0 0 223.2 80.9;" xml:space="preserve">
<style type="text/css">
	.st0{fill:#075E56;}
	.st1{fill:#FF7C3B;}
	.st2{fill:#FAF0E0;}
</style>
<g>
	<g>
		<g>
			<g>
				<g>
					<path class="st0" d="M223.2,37.7c-0.5-2.2-0.9-4.7-1.3-7c-0.3-1.9-0.5-5.7-1.9-7l0.1-0.2c0.1,0.1-0.5-1.5-0.5-1.4
						c-1.5-1.5-2.2-3.7-3.6-5.2c-0.4,0.3-0.5,0.3-0.6,0.1c-0.5-0.4-0.4-1.3-0.8-1.8c-1.3,0.7-5.4-5.4-6.4-6.4
						c-1.4-1.3-3.2-1.4-4.5-2.1c-0.9-0.5-1.6-1.5-2.6-1.9c-1.8-0.9-5.5-1.6-7.1-3.2c-1.1,0.5-3.5-1.9-4.3-1.1l-0.1-0.2
						c-0.3,0.3-0.6,0.4-0.9,0.4l0,0c-4.3-0.3-8.5,0.1-12.7,0.1c-2.8,0-7.3,0.7-9.8-0.6c-1.4,0.6-4.3,0.2-5.8,0.2
						c-2.2,0.1-4.8,0.5-7-0.1c-0.8-0.1-3.5,0.5-4.1-0.1c-0.9,0.6-5.6,0.6-6.6,0.1c0-0.8-10.4,1.2-11.1,0.4c-1.2,0.6-4.6,0.1-5.8,0.2
						c0-0.1-6.7,0.1-6.7,0.1c-1.6,0.8-4.6,0.1-6.3,0.1c-4.2,0.1-9.2-0.6-13.2,0.3c-1.6-0.9-3.6,0-5.3,0.1c-1.4,0.1-4.3-0.1-5.7-0.7
						c-0.7,0.6-1.9,0-2.8,0.7c-0.5-0.7-0.9-0.9-1.3-0.1c-1.2-0.7-3.7,0.4-4.6-0.3C78.9,0.9,76.2,1.5,76,1c-1,0.4-2.7,0.2-3.7,0.2
						c-1.4,0-4.3,0.5-5.5-0.1C65.8,2.6,57.3,0.8,55,1c-5.4,0.4-11.2-0.2-16.8,0c-2.2,0.1-3.9,0.3-5.8,1.1c-1.9,0.8-2.3,0.9-4,1.4
						c-1.9,0.5-3.5,1.6-5.2,2.2c-1.2,0.4-2.1,0.8-3.2,1.4c-1,0.5-2,1.6-3.1,1.9c-0.5,0.9-2,1.7-2.9,2.5c-1.5,1.4-3.6,3.4-4.6,5.2
						C9.6,16.5,9,17,9,16.9c-0.2,0.4-0.4,0.9-0.6,1.4l-0.3-0.1c-1,1.8-2.3,3.4-3.3,5c-1.2,2-1.9,6.2-3.6,7.9c-0.1-0.9-0.3,1.1-0.4,1
						c0.3,1.3-0.6,4.2-0.7,5.7C0.2,39-0.1,40.2,0,41.4c0.1,1.1,0.7,2.9,0.1,3.9c0.3,0.9,2.8,6,2.2,6.6c0.3,0.4,0.8,1.4,0.9,1.9h0.1
						c0.4,0.9,0.7,2,1.5,2.5c-1.4,2.5,3.9,6.5,4.7,8.7c-0.1,0,1.2,1.2,1.2,1.1c0.5,0.1,1.5,1.1,1.9,1.4c-0.3,0.7,2,2.3,2.3,2.7
						c0.2-0.1,1.2-0.5,1.2,0.3c0.4,0,0.8,0.3,0.9,0.7c0.9-0.2,1.2,1.4,2.1,1.2l0.1,0.2c0.1-0.1,0.2-0.1,0.2,0.1l-0.5,0
						c0.9,0.7,1.5,0.9,2.6,1.1c0-0.1-0.1-0.1-0.1-0.2c1,0.6,2.1,1.2,3.2,1.1c0.5,0.7,1.2,0.7,1.9,1.2c0.4,0.2,0.8,0.3,1.3,0.3v0
						c0.8,0.3,1.4,0.4,2.2,0.7h-0.3c0.1,0.4,0.4,0.6,0.7,0.7c1-0.1,2.5,2.1,3.3,0.9c4.1,1.6,9.7,0.9,13.8,1.1
						c5,0.2,9.8-0.5,14.9-0.1c3.4,0.2,6.7,0.3,9.9,0.5c3.7,0.2,8,1.1,11.9,0.8c0.3-0.2,1.9-0.4,2.3-0.2c2.9-0.1,6-0.6,8.9-0.4
						L95.1,80c0.4-0.1,0.9-0.1,1.4,0c0.4-1.8,5.6-0.2,6.7-0.2c0.1-0.4,1-1.4,1.2-0.4l0.2-0.4c0.2,0.2,0.5,0.4,0.5,0.7
						c0.3-0.2,0.4,0,0.2,0.2c0.5-0.3,0.8-0.5,0.9,0.2c0.8-0.2,1.3-0.4,1.9-0.1c0.3-0.2,0.6-0.2,1,0.3c0.8-0.5,3.3-0.2,4.2-0.2
						c2,0,4.2-0.2,6-0.2c4.1,0,7.7-0.2,11.7-0.2c-0.9-1,1.7-0.2,1.7-0.2c0.9,0,1.9-0.2,2.8-0.2c0.8,0,2.5,0.3,3.4-0.3
						c0.4,0.7,3.9,0.4,4.7,0.3v0c0.1-0.1,0.2-0.1,0.4,0.1l0.6-0.8c0.4,1.3,2.8,1.5,3.5,0.6c0.6,0.6,2.5,0,2.6,0.5
						c1.2-0.5,2.8-0.2,4-0.2c0,0.1,0,0.2,0.2,0.3c-0.3,0.5,2.9,1.6,2.2-0.3c0.2-0.1,0.4-0.2,0.6-0.2c-0.2,0.4,0.3,1.3,0.8,0.8
						c0.1-0.3-0.5-0.4,0-0.6c-0.1-0.1-0.2-0.1-0.3-0.2c0.1,0,0.3,0,0.5,0c-0.1,0.2-0.1,0.5-0.2,0.7c0.4-0.2,1,0.5,1.4,0.1
						c0.1-0.4,0-0.6-0.4-0.9c1,0,2,0.1,2.9-0.2c-0.2,0.6,0.8,0.6,1.4,0.7c0.1-1,1.4-0.7,2.1-0.7c-0.1,0.1-0.8,0.3-0.9,0.3l0,0.1
						c1.1,0.3,2.2,0.1,3.3,0.2c0.4-0.2,1,0.1,1.4,0.1l-0.3-0.2c0.8-1,1.6-0.1,2.3,0c1.2,0.2,2.9-0.4,4,0.1c0.9,0.1,3.3-0.5,3.9,0.1
						c0.3-0.2,1.3,0.1,1.1-0.6c-0.6,0.4-1,0.4-1,0c1.3,0,2.9-0.3,4.2,0c0,0,0,0,0,0.1c1,0,2.1,0,3.2,0.1c0,0.1-0.1,0.2-0.1,0.3
						c0.3,0.1,0.6,0.1,0.9,0l-0.3-0.2c3-0.3,7.7,0.7,10.5-0.9c-0.1,0.4-0.4,0.6-0.6,0.9c0,0,0.9,0.5,1.1,0c0.1-0.3-0.3-0.9,0-1.1
						l0,0c0.4-0.2,0.9-0.3,1.3-0.5c-0.9,1-0.4,1.8,0.1,0.9c0.6,0.1,2.3-0.8,2.5-1.3c-0.6,0.1-0.7,0.2-1.1-0.4
						c0.1-0.1,0.3-0.2,0.4-0.3c0.9-1.1,2.8-2.2,3.9-3.1c0.1,0.4,0.4,0.1,0.6,0.1c0-0.1,0-0.1,0-0.2c-0.6-0.2,0.2-0.6,0,0
						c0.2,0.1,0.2,0.1,0,0.2c0,0.2,0,0.3,0,0.5c0.8-0.1,0.2-0.5,0.6-0.6c-0.1-0.2,0-0.3,0.2-0.3c-0.1-0.4,1.8-0.6,0.7-1.3
						c0.3-0.3,0.8-0.6,1.1-1l-0.8-0.7l0.4-0.2l-0.3-0.4c0.9-0.9,1.5-0.7,2.5-0.1c1.8-1.5,3-3.5,4.7-5.1c0,0,0.1,0,0.1,0.1
						c0.4-0.6,0.8-1.4,1.4-1.8c0-0.1,0-0.3,0.2-0.2c0.2-0.3,0.7-0.5,0.9-0.8c0.1-0.7,1.7-3.2,2.2-3.6c0,0,0.6-1.4,0.5-1.2
						c0-0.2,0.6-1.9,0.8-2.1c-1.1-1.1,0.8-3.5,0.2-4.7c0.6-1.9,0.6-4.2,0.6-6.1C222.7,41.7,223.2,39.8,223.2,37.7z M222.3,37.9
						l-0.1,0.1c-0.1-0.1-0.1-0.2-0.1-0.3L222.3,37.9z M221.9,33.5c0,0.1-0.1,0.1-0.1,0.2c0-0.4,0-0.9-0.2-1.3
						c0.1,0.1,0.2,0.2,0.1,0.4C221.9,33,222,33.3,221.9,33.5z M61.3,3.2L61.3,3.2c0.2,0.3,0.5,0.6,0.7,1C61.5,4.3,61.5,3.6,61.3,3.2
						z M32.9,5.8c-0.2,0.6-0.9,0.5-1.3,0.2C31.5,6.2,33.4,4.6,32.9,5.8z M36.2,5.8c0.1,0,0.2,0,0.3,0.1l-0.2,0.2l-0.2-0.3H36.2z
						 M24.1,9.2c0,0,0.1,0,0.1,0l0.2-1.2l0.8,0.6l0.2-0.2c-0.1,0.6-1.1,1.5-1.9,0.9C23.7,9.2,23.9,9.1,24.1,9.2z M21.1,73.8
						c-0.4,0-1.1,0-1.2-0.5c0.3,0.3,1,0.2,1.4,0.4C21.3,73.7,21.2,73.8,21.1,73.8z M32.6,78.3c-0.4,0.1-0.5-0.1-0.8-0.4
						c0.2,0.1,0.3,0.3,0.5,0.4c0.1-0.2,0.4-0.2,0.6,0C32.9,78.3,32.7,78.3,32.6,78.3z M35.9,78.7c-0.2,0.1-0.4,0.1-0.6-0.1
						c0.2-0.1,0.4-0.1,0.5-0.1v-0.4l0.5,0.3C36.1,78.6,35.9,78.7,35.9,78.7z M94.4,78.7c-0.2-0.3-0.2-0.6-0.2-0.9
						c0.6,0.1,1.1,0.8,0.7,1.3C94.7,79,94.5,78.8,94.4,78.7z M88.6,76.5l0.1-0.1l0.1,0.1C88.7,76.5,88.7,76.5,88.6,76.5z
						 M104.1,78.7l-0.2-0.2l0.1-0.1l0.2,0.4L104.1,78.7z M104.5,78.1c-0.5,0-0.5-0.1-0.9-0.2c0.5-0.5,1.2-0.7,1.8-0.3
						C105.2,78,104.9,78.1,104.5,78.1z M105.1,78.9l-0.2-0.2c0.5-0.4,0.7-0.8,1.1-0.4L105.1,78.9z M106.3,79.7
						C106.3,79.7,106.3,79.7,106.3,79.7L106.3,79.7L106.3,79.7z M117.2,79.4c-0.2,0-0.3-0.1-0.4-0.2l-0.2,0.2l-0.2-0.4
						c0.5,0.2,0.9,0.3,1.4,0.1C117.5,79.4,117.3,79.4,117.2,79.4z M120.6,78.4l0-0.1l0.1,0.1L120.6,78.4z M120.6,78.2L120.6,78.2
						l0.1-0.7l0,0l0.1-0.1l0.4,0.9l-0.2-0.5L120.6,78.2z M122.7,79.6l-0.5,0.4l-0.2-0.3l-0.3,0.3c-0.6-0.4-0.7-1-0.4-1.6
						c0.2,0.8,0.8,1.1,1.6,1C122.8,79.4,122.7,79.5,122.7,79.6z M124.9,79.4c-0.4,0-1.1,0.5-1.2-0.3c0.3,0,1.5,0.1,1.6,0.1
						C125.2,79.3,125.1,79.4,124.9,79.4z M125.7,79.7l-0.2-0.3c0.3,0.1,0.6,0,0.8-0.3C126.1,79.4,125.9,79.5,125.7,79.7z
						 M127.2,79.9c-0.2-0.2-0.3-0.5-0.4-0.8c0.2,0,0.5,0.1,0.7,0.2c0.1-0.1,0.2-0.2,0.4-0.1C127.7,79.5,127.5,79.7,127.2,79.9z
						 M128.8,79.2c-0.1,0.1-0.2,0-0.3-0.1c0.3-0.1,0.5-0.1,0.8,0.1C129.1,79.2,128.9,79.2,128.8,79.2z M156.7,79.6
						c-0.1,0.1-0.7-0.2-0.7-0.3C156.1,79.3,157,79.2,156.7,79.6z M158,77.9c-1-0.5-1.4-1.7,0.2-1.9C159.8,75.8,159.7,77.9,158,77.9z
						 M159.2,79.2C159.1,79.2,159.1,79.2,159.2,79.2C159.1,79.2,159.2,79.2,159.2,79.2C159.2,79.2,159.2,79.2,159.2,79.2z M179,78.9
						h0.2l-0.2,0.2L179,78.9z M201.5,77.5c0,0.1-0.1,0.1-0.1,0.1C201.4,77.5,201.4,77.5,201.5,77.5z M200.6,78.3
						c-0.1,0-0.1,0-0.2,0.1C199.6,78,201,78.1,200.6,78.3z M201.3,77.9c-0.7,0.1,0-0.2,0.1-0.3C201.5,77.8,201.4,77.9,201.3,77.9z
						 M201.6,77.8c-0.1,0.1-0.1,0-0.1-0.1C201.6,77.6,201.6,77.7,201.6,77.8z M207.6,72.5c-0.5,0-0.1,0.4-0.7,0.3
						c0.2-0.1,0.4-0.3,0.6-0.5C207.4,72.3,207.8,72.5,207.6,72.5z M207.9,72.5c-0.1-0.1,0.1-0.2,0.1-0.1
						C207.9,72.5,207.9,72.5,207.9,72.5z M208,72.4c0-0.1,0-0.1,0.1-0.1C208,72.3,208,72.3,208,72.4L208,72.4z M208,72.4L208,72.4
						C208.1,72.2,208.1,72.2,208,72.4z M211.4,62.2c-0.3,0.9-1.2,1.3-1.6,2.1c-0.6,1.2,0.4,1.4-1,2.6c-0.2-0.4-0.4-0.7-0.6-1.1
						c-1.3,2.8-5.4,4.9-8,6.2c-1.1,0.5-2.4,1.2-3.6,1.6c-0.8,0.3-3.6,1.9-4.3,1.8c0-0.1,0-0.1-0.1-0.1c0,0-0.1,0-0.1,0l0.1,0.1
						c-0.2,0-0.4-0.1-0.5-0.2c-2.3,1.2-7.3,1.3-9.4,0.2c-8.4,0.3-16.8,0.4-25.7,0.1c-0.5,0.2-2.2-0.1-2.6-0.1
						c-1.9,0.1-3.9,0.4-5.8,0.4c-1.5,0-4.4-0.8-5.5,0.1c-0.6-0.5-1.2-0.5-1.7,0.1c-1.7-1.9-6.8,0.7-9-0.4c-2.1,0.3-7.1-1.2-8.5,0.3
						c-0.9-0.8-3.6-0.6-4.9-0.6c-1.9,0-3.7,0.1-5.6,0c-0.5,0.4-1.3-0.5-1.8-0.2c-0.6,0.1-1.4,0.9-1.9,0.9l-0.1,0.1
						c-0.5-1-1-0.8-1.4,0.3c-0.2-0.1-0.5-0.2-0.7-0.3c-0.5,0.2-0.7-0.2-0.6-0.6c-0.4-0.1-0.7,0.1-0.9,0.4c-0.3-0.3-0.6-0.3-0.9-0.1
						l-0.1-0.2c-0.3,0.1-0.8,0.1-1.1-0.1c-0.5,0.2-1.6-0.2-2,0.3c0.4,0.7-0.3,1.6-0.8,2.1c-0.6-0.4-0.8-1-0.4-1.5l0,0l0.2-0.2
						c-0.3-0.2-1.7,0-1.9,0v-0.5c-2.4-0.5-6.2-0.2-8.7-0.1c-4.3,0.1-8.5,0.4-12.7,0.2c-5.8-0.4-11.4,0.4-17.1-0.4
						c-2.3,0-4.7,0-7.2-0.1L53,75.3c-0.9,0.1-1-0.5-1.7,0.2L50.9,75c-0.2,0.1-0.4,0.2-0.4,0.5c-1,0-3,0-4-0.2c-0.7,0.5-2.6,0-3.4,0
						c-2.3-0.1-4.5-0.1-6.8-0.4c-1.8-0.3-3.6-0.9-5.4-1.3c-0.7-0.2-1.4-0.8-2-0.3c-1.1-0.8-6.3-2.1-6.2-3.6
						c-1.1,0.3-2.4-1.4-3.2-1.9l0,0.1c-0.7-0.9-1.5-1.3-2.3-1.9c0.3-0.5-3-3.3-3.7-4.2c-1.7-2.1-3.6-4.7-4.4-7.3l-0.1,0
						c-0.3-0.7,0.1-1.7-0.2-2.2c-0.1-0.2-1.6-1.7-1.8-1.8c0.2-0.2,0.3-0.4,0.5-0.5c-0.2-0.1-0.4-0.2-0.7-0.1
						c-0.6-1.9-2.3-6.5-1.2-8.4l-0.4-0.4c0.3-0.5,0.5-0.7,0-1.1c0.4-0.2,0.4-0.5,0.1-1.1c0.6-0.7-0.3-0.5-0.3-1.3l0.7-0.2
						c0-3.1,1.1-5.7,2.2-8.6c0.5-1.3,1.1-2.3,1.8-3.5c0.9-1.5,1.1-3.4,2.2-4.7l0,0c1.3-1.1,2.2-3.1,3.3-4.4c0.8-0.9,2.1-1.9,2.5-2.9
						c0.8-0.1,1.5-0.6,2-1.3c0.4,0.1,0.7-0.1,0.9-0.3c-0.3,0-0.6-0.1-0.8-0.4c0.4-0.3,0.8-0.6,1.3-0.6c0.1-0.1,0.1-0.2,0.2-0.4
						c0,0.4-0.1,0.8-0.4,1.1c1.6-0.7,5.1-1.9,6.2-3.1L26.8,8c-0.2,0.3-0.7,0.4-1,0.2c1.2-0.4,1.5-1,2.5-2.1l0.5,0.8
						c0.6-0.3,1.1-0.8,1.5-1.3c0.6,1-0.3,1.5-1,1.6c0.2,0.3,1.9-0.7,2.3-0.2C31.8,7,33,6.6,33.2,6.6c0.1-0.9,2.7,0,3.4,0
						c0.7,0,2.5-0.6,3.3-0.1L40.4,6l0.2,0.4c0.9-0.2,3.3-0.2,4.3,0c-0.1,0.4,0,0.5,0.4,0.4c-0.1-0.1-0.2-0.2-0.3-0.4
						c0.7,0.1,2.2-0.3,2.8,0.1L48.3,6c0.7,1.5,5.3,0.4,6.6,0.4c2.5-0.2,5,0.1,7.4,0.5c1.2-0.3,3,0,4.3,0.1c1.8,0,3.9-0.1,5.7,0.2
						c0.5-0.6,8.7,0,9.7,0c2.3-0.1,4.9,0.1,7.3,0c1.9-0.5,4.7,0,6.7,0c1.1,0,4.5-0.9,5.4-0.2c0.1,0.3,8,0.2,8.5-0.2
						c0.8,0.9,2.5-0.2,3.5,0.5c0-0.7,12.1-0.1,14-0.2c2.6-0.2,5.1-0.3,7.7-0.6c1.9-0.2,6.2-1.2,8-0.6c4.2,0.8,9.1-0.2,13.4-0.1
						c4.5,0.2,8.8-0.2,13.1-0.1c1.6-0.8,5,0.2,6.7,0.2c2.1,0.1,5.3,0.8,7.2,0.2c1,0.4,7,1.6,7.5,0.7c0.7,1.3,3.7,1.5,5,1.7
						c2,0.3,3.3,0.7,5.2,1.6c0.4-0.2,0.9,0,1.3,0.5l-0.2,0.2c4.3,2.4,8.4,6.8,10.9,11c1.1,1.8,1.7,3.2,2.5,5c0.6,1.3,0.8,4.1,1.7,5
						c0.1,0.7,0.1,2.1,0.9,2.6c-0.2,1,0.3,3.4,1,4c-0.5,0.4,0,4.2,0,4.9c0,1.5-1.3,3.9-0.2,4.9c-0.3,0.8-1.4,1.7-1.7,2.8
						c-0.3,1.1-0.6,2.4-1,3.6C215,57.5,213.6,60,211.4,62.2z"/>
				</g>
				<g>
					<path class="st1" d="M212.3,52.1c1.5-1.1,0.4-5.5,2.4-6.2c-0.1-2.6,0.1-5.3,0-8c-0.5-0.6-0.2-1.8-0.8-2.4
						c-0.1-2.3-1.3-5.4-2.7-7.4c-0.4,0.2-0.5,0.1-0.6-0.1c-0.7-0.6-0.6-2.1-1.3-2.9c-1-1.2-2.1-2-3-3.2c-0.8-1-4.1-3.7-4.1-4.9
						c-1.8-0.2-4.9-4.6-6.6-4c1.5,0.1-1.2-0.3-1-0.4c-1.4,0-3.2-1.1-4.6-1.3c-1.3-0.2-2.6-0.4-3.8-0.6c-2.8-0.4-5.5-0.1-8.4,0
						c-1.8,0.1-5.6-0.8-7,0.3c-0.6-0.4-3.2-0.2-4.1-0.2c-1.3-0.5-5.2-0.3-6.8-0.2c-1.5,0.1-2.9,0.4-4.5,0.5
						c-1.9,0.1-3.5,0.2-5.4,0.1c-0.4,0-6.4,0.2-6.6-0.1c-1.1,0.2-1.9-0.2-2.9,0.4c-1-1-6-0.6-7.4-0.6c-1,0.1-2.2,0.4-3.3,0.4
						c0-0.1-4.8-0.3-5.3-0.4c-0.7,0.6-2.5,0-3.3-0.3l-0.2,0.4c-0.7-0.1-1.5,0.4-2.1,0.3c-1.2-0.1-1.4-0.7-2.5-0.5l0.2,0.4
						c-1,0.2-3.7,0-4.6-0.2c-1.1,0.7-5.1-0.3-6.4-0.3c-1.4,0-2.3,0.4-3.8,0.5c-1.5,0.1-3-0.4-4.4-0.3c-4.3,0.2-9-0.3-13.3,0.1
						c0-0.2-0.1-0.2-0.1,0c-2-0.1-4.1-0.1-6.1-0.1c-1.2,0-4.7-0.3-5.7,0.2c0,0,0,0,0,0c-0.4,0.4-2.8,0.3-3.6,0.4
						c-1.7,0.1-3.3-0.3-5-0.3c-1.8,0.1-3.6,0.3-5.4,0.1c-1-0.1-1.7-0.5-2.3,0.4c-0.2,0.1-0.4,0.3-0.6,0.4c-0.1-0.2-0.2-0.4-0.4-0.4
						c-0.1,0.1-0.1,0.2-0.2,0.3c-0.8-0.5-2-0.2-2.8-0.9c0,0-0.8,0.5-0.8,0.5c-1.8-2.4-7.4,1.3-9.6-0.6c0,0,0,0,0,0
						c-0.2-0.8-0.1-0.3-0.8-0.7c-0.2,0.3-0.2,0-0.4,0.2l0,0c-0.2,0.2-0.7,0.3-1,0.5l-0.1-0.1l-0.3,0.2l-0.3-0.4
						c-0.6,0.5-1.2,0.2-1.7-0.1c0,0-0.1,0.1-0.1,0.1l0.4,1c-2.2-1.5-1-0.3-2.3-0.8c-0.2,0.4-0.7,0.8-1.1,1.2
						c-0.9-1.9-2.6,0.6-3.8,1.2c-1.7,0.9-3.9,0.9-5.4,2.6c0,0,0-0.1-0.1-0.1c-0.6,0.3-1.3,0.9-1.7,1.1c-0.7,0.5-5.4,4.1-5.2,4.8
						c0.1,0.3-2.6,4.8-3.2,5.2l0,0c-0.6,1.4-2.4,6.2-3.6,6.7c0.2-1-0.1,0.6-0.2,0.5c0.3,1.7-0.5,3.4-0.6,5.3
						c0.6-0.2,1.6,8.6,2.7,9.6c0.4,0.6,0.4,1.3,0.8,1.9v0c0.4,1.6,1.1,4.6,2.3,5.7c-0.2,0.1,0.8,0.9,1,1.1c-0.9,0.8,5.9,7.2,7.4,7.3
						c1.2,0.6,1.6,1.5,2.5,2.3c1,0.8,3,1.5,4.3,1.7c1.1,0.2,1.9,0.3,3,0.4c0.8,0.1,3.7,0,4.3,0.4c0.4-0.4,1.5-0.4,1.9,0
						c0.7,0.1,2.4-0.2,3,0.4c0.4-0.2,1.1,0,1.4,0.3c0.3-0.5,1.3-0.5,1.5,0.1c1.1-0.1,2.2,0.1,3.2-0.2c0.9,1,5,0.5,6.4,0.4
						c1.3,0,4.3,0.9,5.4-0.1c0.7,0.9,3.6,0.5,4.8,0.4c2.2-0.2,4.4-0.4,6.7-0.4c2,0,4.1-0.2,6.2-0.2c0.5,0,5.7-0.4,6.1,0.3l0.5-0.6
						l0.4,0.6c2.1-0.9,6.5-0.1,8.8-0.1c1.5,0,2.9,0.1,4.3,0.1c2.8,0,5.8,0,8.4,0.2c1.3,0.1,4.9,0.4,5.8-0.5c1.9,0.9,4.9-0.5,6.4,0.6
						c0.6-0.6,5.1-0.7,5.8-0.7c2,0,4.4,0.3,6.3,0.5c0.6-0.3,3.1,0.1,3.8,0.1c1.5,0,3.1,0.1,4.6-0.1c-0.5-0.1-1.2-0.2-1.5-0.6
						c0.6,0,1.5-0.2,2.2,0c-0.1,0.2-0.1,0.3-0.1,0.5c0.2,0.2,0.4,0.2,0.5,0.1c-0.1-0.1-0.3-0.4-0.3-0.5c1.6,0.1,3.2,0,4.9,0.1
						c-0.1,0.3-0.5,0.5-0.8,0.5c1.2,0.4,2.9-0.4,4.2-0.2c1.1,0.1,2,0.2,3,0.3c2.7,0.4,5.5-0.3,8.2-0.1c1.5,0.1,3.3,0.2,4.8,0.2
						c1.1,0,3.2,0.2,4.2,0.1c0.9-0.1,1.7-0.6,2.2-0.4c0.1-0.1,0.1-0.3,0.2-0.4c0.4-0.2,0.7-0.2,0.8,0.1c0.4-0.2,2.4,0.3,3.1,0.3
						c0.7,0,3.9,0.4,4.3,0c0.6,0.2,1.1,0.2,1.6,0.3c0,0,0,0.1,0,0.1c1,0.1,0.6,0.8,1.2-0.3c1.1,0.4,4.4,0.5,5.1-0.4l-0.4-0.1
						c0.3-0.2,0.5-0.1,0.5-0.5h0.3c-0.1,0.2-0.1,0.3-0.1,0.5c0.2-0.1,0.4-0.1,0.5,0c0.3-0.1,0.9-0.1,1.1-0.1
						c1.2-0.7,2.9-0.5,4.1-1.2c-0.3,0.1-0.6,0-0.9-0.2c1.3,0,2.6-0.9,3.8-1.1c0,0.1,0,0.2-0.2,0.3c0.3-0.1,4.1-1.1,4.1-1.1
						c0.1,0.2,0-0.8,0-0.8l-0.1-0.1l0.7-0.4l-0.1-0.1c0.8-0.6,2.3-1.6,2.8-2.5c0.1,0.1,0.2,0.3,0.3,0.4c0.1-0.1,0.5-2.1,1.2-1.5
						c0.2-0.2,0.3-0.4,0.5-0.5c0,0,1.9-2.8,2.1-2.8c0-0.4,0.2-0.4,0.6-0.2c0.6-1.3,1.5-2.8,2.3-4l0,0
						C211.2,54.1,212,52.4,212.3,52.1z M183.9,66.3c-1.5-0.5-3.4-0.5-4.8,0.1c-0.1,0-2.8-0.5-2.9-0.4c-0.5,0.1-1.6,0.5-2.1,0.2
						c-1.8,1.4-10.2-1.9-10.6,0.2c-1.2-1.4-4.6-0.7-6.4-0.9c-1.6-0.2-3.7-0.4-5.2,0.4c-5,0.1-10.3-0.8-15.6-0.6
						c-1.9,0.1-3.8,0.2-5.6,0.2c-1.4,0-4.4,0.2-5.6-0.6c-1.6,1.5-6.9,0-8.9,0.1c-2.5,0.1-5,0.9-7.5,0.7c-2.7-0.2-5.4-0.5-8.3-0.5
						c-2.2,0.1-7.6-0.8-9.3,0.5c-0.4,0-1.2,0.1-1.5-0.2c-0.2,0-1.2-0.2-1.8-0.2c-1.4,0-3.3,0.9-4.6,0.5c-0.3,0.5-0.6,0.2-0.9-0.1
						c-1,0.7-2.6-0.4-3.6,0.5c-1.3-0.9-2.7,0.3-3.7-0.3c0,0.1-0.5-0.1-0.5-0.1c-1.1,0.4-2.4,0-3.4,0.3c-0.9-0.6-3.5-0.3-4.6-0.2
						c-2.2-0.5-4.9-0.3-7.3-0.3c-3-0.1-6.4,0.1-9.5-0.1c-5.2-0.5-10.4,0.1-15.2-0.9c-4-0.8-9.1-4-12.2-6.8c-1.8-1.6-2.5-2.9-3.7-4.9
						c-0.8-1.3-2.6-3.4-2.7-4.9l-0.2,0c0-0.9-0.7-1.6-0.7-2.6L15,45.5c-0.1-0.2-0.1-0.3-0.1-0.4c-0.1,0,0-3.5,0-3.9
						c0-1.2-0.4-1.3,0.4-2.8l-0.1,0c0-0.4,0.1-0.8,0.4-1.2c0.1-0.3,0.1-0.8-0.2-1.2c0.5-0.8,1.5-1.5,0.8-2.5
						c0.9-0.4,1.9-2.7,2.4-3.5l-0.2-0.2c0.7-0.7,1.1-2.3,1.8-2.8l-0.1-0.2l0.1,0c0-0.6,0.5-0.9,1-1.4l0.3,0.5c-0.1-2.2,5-3.5,6-5.4
						c1.3-0.4,5.9-3.6,7.1-3.2c-0.2,0.1,0.6-0.1,0.5,0c1.7-0.8,4.1-0.8,5.9-0.9c2.4-0.1,4.7-1,7-1.2c1.8-0.1,3.5,0.6,5.2,0.6
						c1.8,0,4.3-0.3,5.9-0.8l0,0c0.4,0,0.9,0.1,1.3,0.3c0.5-0.8,1-0.4,1.5,0.2c0.6-0.2,5.9,0.1,6.3,0.4c0.4-0.3,6.1-1,6.5-0.6
						c0.8-0.3,11.6,0.1,11.7,0.4c0.2,0,0.2-0.1,0.3-0.3c0.3,0.3,0.6,0.3,0.8,0.2c0.4,0.5,0.7,0.2,1.3-0.1c1.1,0.9,7,0.9,7.9,0.1
						c1.4,1.3,6.7-0.3,8.7,0c1.3,0.2,2.2,0.4,3.7,0.5c0.6,0,2.7-0.3,3.2,0.2c3.6-1.8,9.1,2,12.5,0c1.1,0.8,4.2,0.2,5.5,0.2
						c2.2-0.1,4.5-0.2,6.7-0.4c2.9-0.2,5.9,0,8.8-0.1c1.2-0.1,5.1-0.4,5.9,0.3c1-1.2,5.4-0.3,6.8-0.2c1.7,0.1,5.2-0.2,6.5-0.8
						c1.2,0.7,3.7,0.3,5,0.3c0.5,0,3.5-0.3,3.8,0.2c1.1-1.1,6,0.1,7.4,0.2c1.5,0.1,4.2,0.4,5.3-0.7c0.5,0.7,1.2,0.8,2.1,0.7
						c2,1.2,5.2,1.7,7.3,2.8c1.7,0.9,5.3,2.1,6,4.2h0c0.1,1.2,2,2.5,2.8,3.5c0.9,1.2,1.6,2.5,2.4,3.7c0.8,1.2,1.3,2.2,1.6,3.5
						c0.1,0.7,0.2,1.3,0.3,2c0.1,0.5,0.4,1.5,0.3,2c0.5,0.2,0.3,3.3,0.3,3.8c0.1,0.3,0,0.7-0.2,1c-0.1,1.1-0.8,2.8-0.5,4
						c-0.6,0.6-0.6,1.8-0.8,2.8c-0.4,1.4-0.3,1.2-1.1,2.4c-0.9,1.5-2.3,2.8-2.9,4.4c-1,1.2-1.5,2.8-2.9,3.8
						c-1.1,0.8-3.5,2.9-4.7,3.1v0.3c0.8-0.5-0.6,0.4-0.6,0.3C194.8,64.9,185,67.2,183.9,66.3z M14.7,43.2c0,0.2-0.1,0.3-0.2,0.4
						c0-0.2,0.1-0.4,0.2-0.5C14.7,43.1,14.7,43.1,14.7,43.2z M14.7,50.6c0.9-0.7,1.6-0.9,2,0.2l-0.8-0.3v0.1
						c-0.2-0.2-0.4-0.1-0.7-0.2c0.1,0.2,0.1,0.5,0,0.7L14.7,50.6z M16.4,51.5c-0.2,0.1-0.4,0.2-0.7,0.1l0.1-0.1l0,0l0.5-0.5l0.2,0.4
						L16.4,51.5z M15.2,46.5c-0.1-0.1-0.1-0.2-0.2-0.2l0.1,0L15.2,46.5z M13,48.4c-0.1-0.4,0.1-1.6,0.9-1.1c0-0.4,0.3-0.8,0.7-0.9
						l0.1,0.1l0,0c0.3,0.4,1,1.9-0.3,1.6c0,0.6-0.8,0.9-1.2,0.5l0,0C13.1,48.6,13,48.6,13,48.4z M40.3,69.1c-0.1,0-0.2,0-0.3-0.1
						c0.2-0.1,0.4-0.1,0.6,0C40.5,69.1,40.3,69.1,40.3,69.1z M130.7,69.8L130.7,69.8l0.1,0.1L130.7,69.8z M146.8,70.5
						c-0.4,0.3-0.7,0.3-0.9-0.1c0.5-0.3,0.9-0.2,1.1,0.1L146.8,70.5z"/>
				</g>
			</g>
		</g>
	</g>
	<path class="st2" d="M76.7,50.5c-0.5,0.2-1.2,0.5-1.9,0.8c-0.5,0.2-1,0.5-1.5,0.4c-1.9-0.1-3.9,0.1-5.8-0.4c-1.7-0.4-3-1.3-4.3-2.2
		c-1.2-0.8-2.3-2-2.8-3.5c-0.2-0.7-0.4-1.4-0.6-2.1c-0.1-0.5-0.4-0.9-0.5-1.3c-0.1-0.4-0.2-0.8-0.1-1.1c0.2-1.2,0.3-2.5,0.6-3.7
		c0.4-1.6,0.7-3.4,1.6-4.8c1.1-1.8,2.6-3.5,4.8-4.1c0.9-0.2,1.9-0.2,2.8-0.3c1.1-0.1,2.1-0.2,3.1-0.3c0.3,0,0.6-0.3,0.8-0.2
		c1,0.3,2.2-0.2,3.2,0.6c0.6,0.5,1.4,0.7,2.1,1c1.2,0.6,2.3,1.2,3.2,2.3c1,1.4,1.4,2.9,2,4.4c0.2,0.4,0.4,0.8,0.5,1.2
		c0.5,1.1,0.5,2.1,0,3.2c-0.1,0.3-0.1,0.6-0.1,1c0,0.2,0,0.4-0.1,0.5c-0.7,1.4-1.3,2.9-2.2,4.2c-0.5,0.8-1.4,1.4-2.1,2.1
		c-0.2,0.3-0.4,0.6-0.6,0.9c-0.4,0.3-0.8,0.6-1.2,0.9C77.3,50,77.1,50.2,76.7,50.5z M72.9,47.3c0.2-0.1,0.3-0.2,0.4-0.3
		c0.6-0.2,1.2-0.4,1.8-0.5c0.3-0.1,0.7-0.1,1-0.2c0.9-0.5,1.5-1,2-1.9c0.5-0.9,0.6-1.8,0.6-2.7c0-1.4,0.1-2.8-0.6-4.1
		c-0.5-0.9-0.8-2.1-1.6-2.8c-1.6-1.5-3.6-1.8-5.7-1.8c-0.4,0-0.8,0.1-1.2,0c-0.5-0.2-0.8-0.1-1.1,0.3c-0.2,0.2-0.4,0.3-0.6,0.4
		c-1.3,0.3-2.1,1-2.1,2.4c0,0.2-0.1,0.5-0.2,0.7c-0.2,0.8-0.5,1.5-0.7,2.3c-0.1,0.4-0.2,0.9-0.3,1.3c-0.1,0.3-0.2,0.5-0.1,0.8
		c0.5,2.2,3.6,4.9,5.9,4.9C71.2,46,72.3,46.2,72.9,47.3z"/>
	<path class="st2" d="M100.1,34.2c0.4,0.8,0.7,1.4,1.1,2c0.1,0.2,0.2,0.3,0.2,0.5c0.1,0.2,0.1,0.6,0.3,0.7c1,0.8,1.4,2,2.4,2.8
		c0.1,0.1,0.1,0.4,0.1,0.8c0.4,0.4,1,0.3,1.5-0.2c1.1-1.2,0.9-2.5,0.5-3.8c0-0.1-0.1-0.2-0.1-0.2c-0.1-1-0.2-2-0.2-3
		c0-0.6,0.3-1.2,0.5-1.8c0.1-0.4,0.2-0.9,0.3-1.3c0.1-0.3,0.8-1.6,1.2-1.8c0.4-0.2,0.7-0.4,1.1-0.4c0.4,0,0.9,0.2,1.1,0.4
		c0.5,1,1.4,1.8,1.6,3c0.1,0.7,0.1,1.4,0.1,2.1c-0.1,1.2-0.2,2.5-0.2,3.7c-0.1,1.5-0.1,3-0.1,4.4c0,1.1,0.1,2.3,0.1,3.4
		c0,0.7-0.2,1.3-0.1,2c0.2,1.3-0.4,2.5-0.5,3.7c-0.1,0.6-0.4,0.9-0.9,1.1c-1.1,0.4-2.1,0.2-2.8-0.7c-1.2-1.5-2.3-3.1-3.4-4.6
		c-0.5-0.6-0.9-1.2-1.5-1.8c-0.7-0.8-1.6-1.5-2.2-2.3c-0.7-0.9-1.3-1.9-1.9-2.9c-0.4-0.6-0.8-0.8-1.4-0.3c-0.8,0.6-1.1,1.5-1,2.5
		c0.1,0.8,0.1,1.6,0.1,2.4c0.1,1.6,0.2,3.2,0.2,4.7c0,0.4-0.4,1-0.8,1.3c-0.6,0.5-1.4,0.8-2.2,1.1c-1.2,0.4-2.2-0.4-2.2-1.6
		c0-0.1,0-0.2-0.1-0.3c-0.9-0.9-0.3-2-0.3-3c0.1-1.7,0.3-3.3,0.5-5c0.1-0.6,0.2-1.2,0.2-1.7c0-1.5-0.1-3.1-0.1-4.6
		c0-0.4,0.1-0.7,0.2-1.1c0-0.2,0.2-0.5,0.1-0.7c-0.5-1.1-0.2-2.2-0.1-3.3c0.1-0.5,0.3-1.2,1.1-1.3c0.6-0.1,1.2-0.4,1.9-0.4
		c1.4-0.1,2.2,0.7,2.9,1.9c0.6,1.1,1.5,2.1,2.3,3.1C99.5,33.9,99.9,34.1,100.1,34.2z"/>
	<path class="st2" d="M140,39.8c-0.1,1.3-0.2,2.7-0.3,4c0,0.1,0,0.2-0.1,0.2c-1.1,0.8-1.2,2.2-1.8,3.3c-0.4,0.8-0.9,1.4-1.5,2.1
		c-0.1,0.1-0.2,0.1-0.4,0.2c-1.3,0.5-2.6,1-3.9,1.6c-1.1,0.5-2.2,1.1-3.6,0.8c-0.4-0.1-0.9,0.1-1.4,0.1c-0.9,0-1.8-0.1-2.6-0.2
		c-0.8-0.1-1.5-0.1-2.2-0.3c-1.2-0.2-1.9-1.1-2.1-2.2c-0.3-2-0.6-4.1-0.7-6.2c-0.1-1.9,0.2-3.9,0.2-5.9c0-0.4-0.2-0.9-0.2-1.3
		c0-0.1-0.1-0.1-0.1-0.2c0.1-1.5,0.2-3,0.4-4.5c0.2-1.2,1.5-2,2.6-1.9c0.6,0.1,1.3-0.1,1.9-0.1c0.7,0,1.5,0,2.2,0
		c0.1,0,0.2,0.1,0.3,0.1c1.1,0,2.2-0.1,3.2-0.1c0.3,0,0.7,0.1,0.9,0.2c1.4,0.8,2.8,1.4,4.3,1.8c1.2,0.3,2,1.1,2.6,2.1
		c0.9,1.5,1.3,3.1,1.8,4.8c0.1,0.5,0.2,1.1,0.3,1.6C140.1,39.8,140.1,39.8,140,39.8z M124.8,44.2c0,0.9,0.1,1.8,0.9,2.2
		c1.4,0.7,2.9,0.9,4.4,0.3c1.2-0.5,2.2-1.2,3.3-1.9c0.4-0.2,0.6-0.7,0.7-1.1c0.2-0.8,0.3-1.6,0.5-2.4c0.6-1.6,0-3.1-0.6-4.5
		c-0.4-0.8-1.1-1.3-1.7-1.9c-0.8-0.8-1.7-1.2-2.7-1.3c-0.9-0.1-1.9,0-2.8,0c-1,0-1.2,0-1.4,1c-0.2,1.8-0.4,3.7-0.5,5.5
		C124.8,41.5,124.8,42.9,124.8,44.2z"/>
	<path class="st2" d="M177.9,46.3c-0.1,1.1-0.1,2.1-0.2,3.2c-0.1,0.6-0.1,1.3-0.3,1.9c-0.2,0.5-0.7,0.8-1.3,0.6
		c-0.6-0.2-1.2-0.4-1.8-0.6c-1.4-0.6-1.4-1.8-1.5-3c0-1.2,0.1-2.3,0.1-3.5c-0.2-2-0.2-4,0.2-6c0.1-0.4,0-0.8,0-1.2
		c-0.1-1.6-0.3-3.3-0.2-4.9c0.1-1-0.1-2.2,0.9-3c0.2-0.1,0.5-0.4,0.7-0.3c0.9,0.1,1.8,0.3,2.6,0.4c1.3,0.2,2.5,0.5,3.8-0.1
		c0.3-0.1,0.7-0.2,1-0.1c1.1,0.1,2.3,0.3,3.4-0.2c0.2-0.1,0.4-0.1,0.5,0c0.8,0.4,1.6,0.9,2.5,1.3c1.5,0.9,2.3,2.3,2.9,3.9
		c0.2,0.5,0.4,1.1,0.5,1.6c0.1,0.5,0.1,1,0.2,1.5c0.3,0.9,0.4,1.7-0.3,2.4c-0.5,0.6-0.8,1.5-1.7,1.9c-0.4,0.1-0.6,0.5-0.9,0.8
		c-0.1,0.1-0.2,0.2-0.4,0.2c-1,0.4-1.5,1.3-1,2.3c0.1,0.3,0.4,0.6,0.6,0.9c0.7,0.7,1.4,1.3,2.1,2c0.5,0.5,0.8,1.1,1.1,1.7
		c0.2,0.4,0.1,0.9-0.4,1.2c-0.3,0.2-0.5,0.6-0.8,0.9c-0.7,0.8-1.4,0.8-2,0c-1.6-1.8-3.2-3.7-4.9-5.5c-0.8-0.9-1.6-1.9-2.9-2.1
		c-0.6-0.1-1.3,0-1.9,0.1c-0.2,0.1-0.5,0.5-0.6,0.7C177.7,45.5,177.8,45.9,177.9,46.3C177.9,46.3,177.9,46.3,177.9,46.3z
		 M181.5,40.3c0.5-0.1,1.3-0.2,2-0.3c1.1-0.2,2.2-0.4,2.9-1.5c0.7-1.2,0.8-2-0.5-2.8c-1.3-0.8-2.7-1.4-4.2-1.8c-0.9-0.3-2-0.1-3.1,0
		c-0.7,0.1-1.1,0.9-1.1,1.6c0,0.6,0,1.2-0.2,1.8c-0.3,0.9-0.1,1.6,0.7,2.2C179.1,40.1,180.2,40.3,181.5,40.3z"/>
	<path class="st2" d="M160.9,33.8c-0.9-0.2-1.9-0.3-2.9-0.5c-1.4-0.3-2.9-0.2-4.2,0.3c-1.3,0.5-1.7,1.6-1.2,2.9
		c0.1,0.2,0.2,0.5,0.2,0.7c0.2,1.2,0.6,1.6,1.8,1.5c1.8-0.1,3.6-0.3,5.3-0.5c0.3,0,0.6-0.1,0.9-0.1c1.4-0.1,2.2,0.7,1.9,2.2
		c-0.1,1-1,1.9-2.2,2c-1.6,0.2-3.2,0.2-4.9,0.3c-0.9,0.1-1.9,0.2-2.9,0.3c-0.5,0.1-0.8,0.7-0.7,1.2c0.1,0.5,0.2,1,0.3,1.4
		c0.4,1.7,1.8,2.5,3.5,2.1c0.9-0.2,1.8-0.4,2.8-0.5c1.2-0.1,2.5-0.1,3.7,0.1c1.2,0.3,2.3,1.7,1.9,2.9c-0.1,0.4-0.6,0.8-1,0.9
		c-1.1,0.4-2.3,0.8-3.5,1c-0.8,0.1-1.7,0-2.5,0c-0.7,0-1.3,0-2-0.1c-0.5-0.1-1-0.2-1.5-0.3c-1.2-0.1-2.3,0-3.5,0
		c-1.4,0-1.9-0.4-2.4-1.7c-0.4-1.1-0.5-2.1-0.3-3.3c0.2-1-0.1-2.1-0.1-3.1c0-0.8,0.2-1.5,0.2-2.2c-0.1-0.9-0.3-1.9-0.3-2.9
		c0-0.8,0.1-1.5,0.1-2.3c0.1-0.8,0.2-1.5,0.2-2.2c0.1-1.2,0.2-2.3,0.2-3.5c0-1.1,0.4-1.2,1.4-1.2c2.3-0.2,4.5,0.6,6.9,0.1
		c2.2-0.4,4.4-0.5,6.6,0.1c1.3,0.4,2.1,1.9,1.5,3c-0.3,0.5-1,0.9-1.6,1.1c-0.5,0.2-1.2,0-1.8,0C160.9,33.7,160.9,33.8,160.9,33.8z"
		/>
	<path class="st2" d="M52.1,27.7c0.8,0.4,1.5,0.7,2.4,1.1c-0.2,0.1-0.3,0.2-0.5,0.3c0.7,0.4,1.1,0.9,0.8,1.6
		c-0.4,0.8-0.9,1.6-1.3,2.5c-0.2,0.3-0.2,0.7-0.4,1.1c-0.2,0.5-0.3,1-0.5,1.4c-0.5,0.8-1.1,1.6-1.8,2.3c-0.3,0.4-0.8,0.6-1.1,1
		c-0.8,0.9-1.6,1.9-2.4,2.9c-0.8,1-0.8,2.1-0.5,3.3c0.2,0.8,0.1,1.8,0.1,2.6c0,0.4,0.2,0.8,0.1,1.2c0,0.8-0.1,1.6-0.2,2.5
		c-0.1,0.4-0.3,0.6-0.7,0.6c-0.5,0.1-1,0.1-1.5,0.2c-1.1,0.2-2.3-0.8-2.3-1.8c0.1-2.4-0.1-4.8-0.3-7.1c-0.1-0.5,0.3-1.1,0.4-1.7
		c-0.5-0.2-1.1-0.3-1.5-0.6c-0.5-0.4-0.8-1-1.2-1.5c-0.3-0.4-0.7-0.8-1-1.2c-0.3-0.4-0.7-0.7-1-1c-0.5-0.5-1-1.1-1.4-1.6
		c-0.2-0.2-0.4-0.5-0.6-0.8c-0.2-0.4-0.4-0.8-0.8-1.1c-1.1-0.8-1.7-2.6-1.1-3.7c0.5-0.9,1.3-1.7,2.4-1.9c0.1,0,0.2-0.1,0.3-0.1
		c0.3,0,0.6-0.1,0.8,0.1c0.6,0.7,1.3,1.5,1.8,2.3c0.2,0.3,0.2,0.9,0.4,1.1c1.6,1.2,2.2,3,3,4.7c0.3,0.5,0.8,0.9,1.2,1.3
		c0.1,0.1,0.5,0.2,0.5,0.1c0.6-0.5,1.2-0.9,1.6-1.5c1.3-2,2.5-4.1,3.8-6c0.5-0.8,1.3-1.3,2-2C52.1,28.1,52.1,27.9,52.1,27.7z"/>
</g>
</svg>
