<?xml version="1.0" encoding="utf-8"?>
<!-- Generator: Adobe Illustrator 21.0.2, SVG Export Plug-In . SVG Version: 6.00 Build 0)  -->
<svg version="1.1" id="Layer_1" xmlns="http://www.w3.org/2000/svg" xmlns:xlink="http://www.w3.org/1999/xlink" x="0px" y="0px"
	 viewBox="0 0 831 510" style="enable-background:new 0 0 831 510;" xml:space="preserve">
<style type="text/css">
	.st0{fill:#08938F;}
	.st1{fill:#FF7C3B;}
	.st2{fill:#075E56;}
</style>
<g>
	<g>
		<g>
			<g>
				<path class="st0" d="M830,246.2c-2-8.1-3.4-17.3-5-26.1c-1.2-6.9-1.8-21-7.2-26l0.4-0.9c0.2,0.3-1.9-5.7-1.8-5.3
					c-5.6-5.6-8-13.8-13.2-19.4c-1.3,1.1-2,1.2-2.3,0.4c-2-1.4-1.4-4.7-2.9-6.8c-4.9,2.7-19.9-20.2-23.7-23.6
					c-5.3-4.8-11.8-5.1-16.6-7.8c-3.2-1.8-6.1-5.4-9.8-7.1c-6.8-3.2-20.4-5.9-26.2-11.7c-4.1,2-12.9-7-15.9-3.9l-0.4-0.8
					c-1,1.1-2.2,1.6-3.5,1.3l0,0c-15.8-1.1-31.6,0.5-47.1,0.5c-10.5,0-27.2,2.6-36.2-2.2c-5.1,2.4-16.1,0.6-21.6,0.7
					c-8.2,0.2-17.7,1.8-26.1-0.5c-3-0.2-13.1,2-15.3-0.3c-3.5,2.3-20.9,2.4-24.3,0.5c0-3.1-38.4,4.3-41.2,1.3
					c-4.3,2.4-17,0.3-21.6,0.7c0.1-0.3-24.8,0.4-24.9,0.2c-6,3-17.1,0.3-23.4,0.4c-15.6,0.3-34.1-2.4-48.8,1
					c-5.8-3.3-13.4,0.1-19.6,0.4c-5.3,0.2-16.1-0.4-21.3-2.7c-2.6,2.3-7.2,0-10.4,2.6c-2-2.7-3.3-3.4-4.8-0.5
					c-4.5-2.6-13.9,1.5-17-1.1c-3.5,0.4-13.5,2.4-14.4,0.6c-3.6,1.5-9.9,0.6-13.9,0.6c-5.2,0.1-15.8,1.7-20.4-0.3
					c-3.2,5.5-34.9-0.9-43.3-0.2c-20.1,1.6-41.6-0.6-62.2-0.1c-8.1,0.2-14.3,1-21.5,4.1c-7.1,3-8.6,3.4-15,5.1
					c-7.2,2-12.9,5.9-19.4,8.1c-4.6,1.6-7.8,2.8-12,5.1c-3.6,1.9-7.6,6-11.6,7.2c-1.7,3.2-7.4,6.3-10.6,9.4
					c-5.6,5.3-13.3,12.5-17,19.3c1-0.7-1.3,0.9-1.3,0.7c-0.8,1.6-1.6,3.4-2.1,5.1l-1.1-0.3c-3.6,6.5-8.5,12.6-12.1,18.7
					c-4.5,7.5-6.9,23-13.2,29.2c-0.2-3.3-1.2,4.1-1.4,3.6c1.2,4.8-2.4,15.7-2.7,21.2c-0.3,4.5-1.1,8.8-0.8,13.3
					c0.2,4,2.6,10.8,0.3,14.5c1.1,3.5,10.4,22.1,8,24.4c1.2,1.4,2.9,5.3,3.4,7.2l0.2,0c1.5,3.2,2.5,7.5,5.7,9.2
					c-5.2,9.4,14.5,24.2,17.3,32.4c-0.2-0.1,4.4,4.5,4.3,4.2c1.7,0.5,5.7,4.2,7,5.3c-1.1,2.7,7.6,8.4,8.7,10c0.9-0.5,4.6-1.8,4.5,1
					c1.6,0,2.8,1.1,3.3,2.5c3.3-0.9,4.5,5.3,7.8,4.6l0.4,0.6c0.4-0.3,0.7-0.2,0.9,0.4l-1.7,0.1c3.4,2.5,5.6,3.4,9.6,4.2
					c-0.1-0.2-0.2-0.4-0.2-0.7c3.6,2.4,7.7,4.5,12,3.9c1.7,2.7,4.3,2.5,6.9,4.5c1.5,0.6,3.1,1,4.7,1.2c0,0,0,0.1,0,0.1
					c3,1.1,5.3,1.4,8,2.6l-1.2,0c0.4,1.3,1.5,2.2,2.7,2.6c3.7-0.3,9.1,7.8,12.2,3.2c15.3,5.8,35.8,3.2,51.2,4
					c18.5,0.9,36.4-1.7,55.1-0.5c12.5,0.8,24.9,1.2,36.8,1.9c13.9,0.8,29.8,4,44.2,2.9c1.2-0.6,7-1.4,8.4-0.8
					c10.6-0.5,22.2-2.2,32.9-1.5L355,403c1.6-0.3,3.5-0.3,5.3,0c1.3-6.6,20.7-0.7,24.8-0.7c0.4-1.4,3.6-5.1,4.6-1.6l0.8-1.4
					c0.9,0.6,1.8,1.6,1.9,2.7c1.2-0.6,1.3-0.1,0.9,0.8c2-1.1,2.9-1.7,3.4,0.8c3-0.6,4.8-1.3,7.2-0.3c1.1-0.9,2.3-0.6,3.6,1.2
					c3-1.9,12.2-0.8,15.5-0.8c7.3,0,15.6-0.7,22.1-0.6c15.1,0.1,28.7-0.9,43.5-0.7c-3.5-3.6,6.2-0.9,6.4-0.9
					c3.4-0.1,6.9-0.7,10.3-0.9c2.8-0.1,9.4,1,12.6-1.2c1.5,2.5,14.5,1.3,17.4,1l0,0.1c0.4-0.5,0.9-0.4,1.6,0.2l2.1-3
					c1.5,4.7,10.2,5.7,12.8,2.1c2.2,2.2,9.4,0,9.5,1.7c4.3-1.7,10.2-0.7,14.8-0.7c0.1,0.4,0.1,0.8,0.6,1c-1.2,1.8,10.8,6,8.2-1.1
					c0.7-0.4,1.5-0.6,2.3-0.6c-0.7,1.5,1,5,3,3c0.4-1.2-1.9-1.4,0-2.4c-0.3-0.3-0.6-0.5-1.1-0.6c0.5,0,1.2,0,1.9,0
					c-0.2,0.9-0.5,1.8-0.7,2.7c1.4-0.6,3.6,1.7,5.3,0.5c0.4-1.3-0.1-2.4-1.5-3.2c3.7,0,7.4,0.2,10.9-0.6c-0.7,2.1,3,2.3,5.2,2.5
					c0.2-3.8,5.2-2.7,7.8-2.6c-0.4,0.3-2.8,1.1-3.4,1l0.1,0.2c4.1,1.1,8,0.5,12.4,0.7c1.3-0.6,3.6,0.3,5.1,0.4L631,401
					c3-3.8,5.9-0.5,8.5,0c4.6,0.8,10.7-1.3,15,0.2c3.4,0.3,12.2-2,14.5,0.3c1.1-0.7,4.9,0.5,3.9-2.4c-2.4,1.4-3.6,1.5-3.7,0.1
					c4.7,0,10.9-1.2,15.4,0c0,0.1-0.1,0.1-0.1,0.2c3.8,0.1,7.9,0,11.8,0.3c0,0.4-0.2,0.8-0.4,1.2c1.1,0.5,2.3,0.5,3.4,0l-1-0.6
					c11.3-1.2,28.7,2.5,39.1-3.2c-0.5,1.3-1.3,2.4-2.3,3.4c-0.1,0.1,3.2,1.7,4.1,0.1c0.5-1-1-3.3,0.1-4.1l0,0c1.5-0.8,3.3-1,4.8-1.8
					c-3.4,3.7-1.3,6.5,0.4,3.3c2.1,0.5,8.7-3.1,9.4-4.9c-2.4,0.3-2.6,0.7-4.1-1.4c0.4-0.4,1.1-0.8,1.6-1c3.2-4.1,10.4-8,14.6-11.4
					c0.4,1.5,1.5,0.4,2.4,0.4c0-0.2,0-0.4,0-0.6c-2.3-0.7,0.8-2.4,0,0c0.6,0.3,0.7,0.5,0,0.6c0,0.6,0,1.2,0,1.8
					c3.1-0.2,0.9-1.8,2.4-2.4c-0.2-0.6,0-1,0.6-1.2c-0.4-1.6,6.6-2.4,2.6-5c1-1.2,2.9-2.4,4.1-3.6l-2.8-2.7l1.5-0.7l-1.2-1.6
					c3.3-3.3,5.6-2.6,9.1-0.4c6.5-5.7,11.1-13.1,17.5-18.8c0.1,0.1,0.3,0.1,0.4,0.3c1.3-2.2,3-5.1,5.2-6.5c-0.1-0.5,0-1.1,0.6-0.8
					c0.8-1.1,2.6-1.9,3.4-3.1c0.3-2.5,6.4-11.8,8.3-13.3c0,0.1,2.4-5.2,2-4.6c0-0.9,2.2-7.1,2.8-7.7c-3.9-3.9,3.1-12.9,0.7-17.3
					c2.2-7.1,2.1-15.7,2.3-22.8C828.2,261.1,830,254.2,830,246.2z M826.7,246.8l-0.3,0.5c-0.2-0.3-0.3-0.7-0.4-1.2L826.7,246.8z
					 M825,230.7c-0.1,0.2-0.2,0.4-0.3,0.6c0.1-1.6-0.1-3.3-0.6-4.9c0.5,0.4,0.6,0.9,0.3,1.6C825.1,228.7,825.4,229.8,825,230.7z
					 M229.5,118.4l0.1-0.2c0.8,1.3,1.7,2.6,2.6,3.9C230.3,122.2,230.2,119.8,229.5,118.4z M124.3,128.1c-0.8,2.2-3.2,2-4.7,0.9
					C119.2,129.4,126,123.5,124.3,128.1z M136.6,128.1c0.4,0,0.8,0.1,1.1,0.2l-0.9,0.8l-0.6-1L136.6,128.1z M91.6,140.4
					c0,0,0.4,0,0.5,0l0.7-4.5l2.8,2.3l0.7-0.6c-0.5,2.3-4.2,5.6-6.9,3.3C90,140.5,90.8,140.3,91.6,140.4z M80.6,380
					c-1.6,0-4-0.1-4.5-1.7c1.2,1.2,3.6,0.9,5.3,1.6C81.1,379.9,80.9,380,80.6,380z M123.1,396.9c-1.5,0.2-1.9-0.5-3-1.5
					c0.6,0.5,1.2,1,1.9,1.3c0.5-0.7,1.3-0.8,2.4-0.1C124.1,396.8,123.6,396.9,123.1,396.9z M135.2,398.4c-0.7,0.4-1.5,0.3-2.3-0.3
					c0.6-0.4,1.3-0.5,2-0.5l0-1.6l1.7,1C136.2,397.9,135.5,398.3,135.2,398.4z M352.4,398.3c-0.7-1-0.9-2.1-0.7-3.2
					c2.3,0.3,4.1,3,2.6,4.7C353.4,399.5,352.8,398.8,352.4,398.3z M330.8,390.3l0.4-0.4l0.2,0.3
					C331.2,390.3,331.1,390.3,330.8,390.3z M388.3,398.4l-0.6-0.7l0.3-0.3l0.8,1.5L388.3,398.4z M389.6,396.2
					c-1.8,0.1-2-0.4-3.3-0.8c2-1.9,4.5-2.5,6.6-1C392.3,395.6,391.2,396.2,389.6,396.2z M392.1,399l-0.6-0.7c1.8-1.6,2.5-2.9,4-1.3
					L392.1,399z M396.5,402c0.1,0,0.1,0,0.2,0l0,0.1L396.5,402z M436.8,400.8c-0.6,0-1.2-0.2-1.6-0.6l-0.8,0.7l-0.9-1.5
					c1.7,0.9,3.4,1,5.1,0.5C438,400.7,437.1,400.8,436.8,400.8z M449.3,397.1l0.1-0.4l0.3,0.5L449.3,397.1z M449.5,396.3l-0.1,0.1
					l0.5-2.7l0.1,0.1l0.2-0.4l1.5,3.2l-0.9-1.7L449.5,396.3z M457.1,401.5l-1.7,1.3l-0.9-1l-1.1,1.1c-2.4-1.4-2.6-3.8-1.4-5.9
					c0.8,2.8,3.1,4.2,6,3.7C457.6,401,457.4,401.3,457.1,401.5z M465.4,400.8c-1.4,0-4,1.8-4.5-1c1.1,0.1,5.4,0.2,5.8,0.4
					C466.4,400.6,466,400.8,465.4,400.8z M468.5,402.1l-0.6-1.2c1.1,0.3,2.1,0,3-1C470,400.7,469.3,401.4,468.5,402.1z M474,402.7
					c-0.6-0.9-1.1-1.9-1.6-2.9c0.9,0.1,1.7,0.3,2.5,0.7c0.3-0.5,0.9-0.6,1.6-0.2C475.7,401.1,474.9,401.9,474,402.7z M479.8,400.1
					c-0.5,0.2-0.8,0.1-1.1-0.2c1-0.3,2-0.2,3,0.3C481.1,400.1,480.4,400.1,479.8,400.1z M583.2,401.7c-0.4,0.4-2.5-0.7-2.6-1
					C581,400.6,584.3,400.2,583.2,401.7z M588,395.2c-3.7-1.8-5.1-6.4,0.6-7C595,387.6,594.4,395.5,588,395.2z M592.5,400.2
					c-0.1-0.1-0.1-0.1-0.2-0.2c0.1,0,0.2,0,0.3,0C592.6,400.1,592.5,400.1,592.5,400.2z M665.9,399.2l0.9,0l-0.6,0.6L665.9,399.2z
					 M749.5,393.8c-0.1,0.3-0.2,0.4-0.3,0.5C749.2,394,749.3,393.9,749.5,393.8z M746,396.7c-0.2,0.1-0.5,0.1-0.9,0.2
					C742.5,395.6,747.7,395.9,746,396.7z M748.8,395.5c-2.7,0.2-0.1-0.7,0.4-1C749.4,395,749.2,395.4,748.8,395.5z M749.7,394.8
					c-0.2,0.4-0.5-0.1-0.4-0.3C749.8,394.1,749.8,394.4,749.7,394.8z M772,375.4c-1.8,0-0.2,1.4-2.5,1.2c0.8-0.5,1.5-1.1,2.2-1.8
					C771.4,374.7,772.9,375.4,772,375.4z M773.1,375.3c-0.5-0.3,0.3-0.8,0.3-0.4C773.3,375.3,773.2,375.4,773.1,375.3z M773.5,374.8
					c-0.1-0.3,0-0.4,0.3-0.5C773.7,374.5,773.6,374.7,773.5,374.8C773.5,374.8,773.5,374.8,773.5,374.8z M773.7,374.8
					C773.7,374.8,773.7,374.8,773.7,374.8C774.1,374.3,774.1,374.3,773.7,374.8z M786.1,337.2c-1,3.2-4.6,4.9-6,7.7
					c-2.4,4.6,1.3,5.2-3.6,9.8c-0.8-1.3-1.5-2.6-2.2-4c-4.8,10.3-20.1,18.2-29.6,22.9c-4.1,2-8.9,4.5-13.4,6.1
					c-3.1,1.1-13.5,6.9-15.8,6.7c0.1-0.2,0-0.3-0.2-0.4c-0.1,0.1-0.2,0.1-0.2,0.1l0.5,0.3c-0.7,0-1.3-0.2-1.9-0.6
					c-8.4,4.4-27,4.7-34.7,0.9c-31.2,1-62.3,1.6-95.2,0.3c-2,0.9-8.1-0.3-9.7-0.2c-7.2,0.3-14.3,1.3-21.5,1.3
					c-5.5,0-16.5-3-20.4,0.3c-2.1-2-4.3-1.9-6.3,0.3c-6.3-7-25.3,2.5-33.3-1.6c-7.7,1-26.3-4.4-31.7,1.1c-3.2-3.1-13.5-2.1-18.1-2.2
					c-7.1,0-13.8,0.5-20.6,0.1c-1.8,1.4-5-1.7-6.5-0.8c-2.3,0.4-5.3,3.5-7.2,3.3l-0.3,0.5c-1.7-3.8-3.8-2.8-5.1,1
					c-0.8-0.5-1.7-0.9-2.7-1.2c-1.7,0.9-2.5-0.9-2.2-2.3c-1.4-0.3-2.6,0.2-3.4,1.4c-1-1.1-2.1-1.1-3.3-0.2l-0.5-0.7
					c-1.2,0.3-2.8,0.3-3.9-0.2c-2,0.9-5.9-0.9-7.6,1c1.5,2.6-1.2,6.1-3.1,7.9c-2.4-1.6-3-3.7-1.4-5.7l-0.1,0.1l0.7-0.6
					c-1-0.6-6.2,0-7-0.1l0-2c-8.8-2-22.9-0.8-32.4-0.5c-15.8,0.4-31.4,1.5-47.1,0.6c-21.4-1.3-42.1,1.4-63.4-1.3
					c-8.5,0-17.3-0.1-26.7-0.2l-0.2-0.6c-3.5,0.2-3.8-1.9-6.4,0.6l-1.5-1.6c-0.9,0.4-1.5,0.7-1.6,1.9c-3.7,0.1-11.2-0.1-15-0.8
					c-2.7,1.8-9.8,0.1-12.5,0c-8.5-0.3-16.7-0.2-25.4-1.6c-6.7-1.1-13.5-3.3-20.1-5c-2.5-0.6-5.1-3-7.6-1.2
					c-4.1-3.1-23.3-7.8-23.1-13.4c-3.9,1-8.9-5.2-11.7-6.9l-0.1,0.5c-2.6-3.2-5.5-4.7-8.6-7.2c1-1.9-11.1-12.4-13.6-15.5
					c-6.3-7.7-13.2-17.5-16.3-27l-0.3,0.1c-1.1-2.5,0.2-6.3-0.6-8.2c-0.2-0.6-6.1-6.2-6.6-6.7c0.6-0.6,1.2-1.3,1.8-1.9
					c-0.9-0.5-1.4-0.6-2.5-0.5c-2.2-6.9-8.4-24.2-4.5-31.3c0,0-1.6-1.6-1.6-1.6c1.1-1.9,1.8-2.7,0.1-4.1c1.6-0.9,1.4-2,0.5-4
					c2.3-2.7-1.2-2-1.1-4.8l2.7-0.6c0-11.5,4-21.2,8-31.8c1.7-4.7,4.2-8.6,6.6-12.8c3.2-5.5,4.1-12.5,8.3-17.3l0,0
					c4.8-4.1,8-11.5,12.2-16.5c2.8-3.4,7.9-7.1,9.2-10.8c3-0.4,5.6-2.4,7.3-4.8c1.3,0.3,2.5-0.2,3.5-1.1c-1,0-2.4-0.3-2.9-1.3
					c1.3-1.2,2.8-2.4,4.7-2.2c0.2-0.5,0.4-0.9,0.8-1.3c-0.1,1.5-0.5,2.8-1.3,4c6.1-2.6,18.9-6.9,23.1-11.6l-0.9-1.1
					c-0.8,1.2-2.5,1.6-3.6,0.9c4.6-1.5,5.6-3.6,9.1-7.8l1.9,2.8c2.1-1.2,3.9-2.8,5.4-4.8c2.4,3.6-1,5.4-3.6,6
					c0.6,1.2,6.9-2.6,8.7-0.6c0.3-0.2,5-1.7,5.8-1.7c0.3-3.2,10.1,0.1,12.5,0c2.5-0.1,9.3-2.2,12.4-0.4l1.7-1.7l0.8,1.3
					c3.3-0.7,12.4-0.6,15.8,0.1c-0.4,1.5,0.1,2,1.5,1.4c-0.4-0.4-0.7-0.9-1.1-1.3c2.5,0.2,8-1.1,10.2,0.5l1.9-2.3
					c2.5,5.6,19.6,1.6,24.6,1.3c9.4-0.6,18.5,0.2,27.3,1.9c4.6-1,11.2,0.1,15.9,0.3c6.5,0.1,14.6-0.3,21.1,0.9
					c1.8-2.4,32.3,0.1,36,0c8.4-0.3,18.1,0.4,27-0.1c7.1-1.8,17.4-0.1,24.7-0.1c3.9,0,16.8-3.5,19.9-0.6c0.2,1.1,29.5,0.6,31.6-0.8
					c3,3.2,9.1-0.6,12.9,1.9c0-2.7,45-0.2,51.8-0.8c9.6-0.8,18.8-1.1,28.4-2.1c6.9-0.7,23-4.6,29.7-2.2c15.6,3,33.7-0.8,49.6-0.2
					c16.6,0.6,32.6-0.7,48.6-0.2c6.1-3.1,18.5,0.6,24.8,0.8c7.9,0.2,19.5,2.8,26.7,0.7c3.7,1.5,25.8,5.9,27.9,2.5
					c2.7,4.7,13.6,5.5,18.5,6.3c7.4,1.2,12.3,2.7,19.3,6c1.6-0.9,3.4-0.1,4.8,1.8l-0.6,0.6c15.8,9,31.3,25.4,40.5,40.8
					c3.9,6.5,6.3,11.8,9.1,18.6c2.1,5,3.1,15.1,6.2,18.5c0.4,2.7,0.5,7.8,3.3,9.7c-0.9,3.6,1,12.6,3.8,14.7
					c-1.8,1.6,0.1,15.7,0.1,18.1c0,5.4-5,14.4-0.8,18.1c-1.1,2.9-5.2,6.4-6.3,10.3c-1.2,4.1-2.1,8.9-3.7,13.4
					C799.7,319.5,794.3,329.1,786.1,337.2z"/>
			</g>
			<g>
				<path class="st1" d="M789.7,299.7c5.4-4.1,1.4-20.4,8.8-23c-0.2-9.7,0.2-19.5-0.1-29.8c-1.9-2.4-0.8-6.7-2.9-9
					c-0.2-8.5-5-20-9.9-27.3c-1.3,0.6-2,0.5-2.2-0.3c-2.6-2.4-2.2-7.9-4.7-10.9c-3.6-4.3-7.9-7.6-11.2-12
					c-2.8-3.7-15.1-13.9-15.1-18c-6.6-0.6-18.2-16.9-24.5-15c5.5,0.5-4.3-1-3.7-1.4c-5.2,0.1-11.9-3.9-17-4.9
					c-4.7-0.8-9.5-1.5-14.1-2.1c-10.5-1.3-20.5-0.4-31.2-0.1c-6.5,0.2-20.6-2.9-25.9,1.2c-2.2-1.4-12-0.9-15.3-0.7
					c-5-1.8-19.2-1.1-25.1-0.6c-5.7,0.5-10.9,1.4-16.8,1.7c-6.9,0.4-12.8,0.6-20,0.2c-1.5-0.1-23.6,0.8-24.3-0.3
					c-4,0.8-7.1-0.9-10.8,1.3c-3.6-3.7-22.3-2.4-27.6-2.2c-3.7,0.2-8,1.3-12.2,1.3c0-0.3-17.9-1-19.6-1.6c-2.6,2.1-9.4,0-12.2-1
					l-0.6,1.4c-2.5-0.3-5.7,1.3-7.8,1.2c-4.4-0.2-5.1-2.5-9.3-1.7l0.9,1.5c-3.6,0.9-13.7,0.1-17-0.8c-4.1,2.5-19-1.2-23.7-1.1
					c-5.1,0.1-8.7,1.4-14,1.7c-5.6,0.3-11.1-1.6-16.5-1.2c-16,0.9-33.2-1-49.5,0.2c-0.1-0.7-0.2-0.7-0.2,0
					c-7.3-0.5-15.3-0.4-22.5-0.4c-4.3,0-17.6-1.2-21.1,0.8c0,0,0,0-0.1,0c-1.5,1.6-10.5,1.2-13.5,1.3c-6.3,0.3-12.4-1.2-18.4-1
					c-6.6,0.2-13.4,1-20.2,0.5c-3.8-0.3-6.3-1.9-8.5,1.3c-0.7,0.5-1.4,1-2.1,1.5c-0.2-0.7-0.8-1.5-1.4-1.5c-0.2,0.4-0.4,0.8-0.6,1.1
					c-2.9-1.9-7.4-0.9-10.2-3.3c-0.1,0-2.8,1.9-2.8,1.9c-6.6-8.9-27.4,5-35.7-2.1c0,0-0.1,0-0.1,0.1c-0.9-2.9-0.3-1-3.1-2.7
					c-0.6,1.2-0.8,0-1.4,0.6c0,0,0,0,0,0c-0.8,0.7-2.7,1.2-3.7,2l-0.5-0.5l-1,0.9l-1.2-1.5c-2.2,1.8-4.3,0.7-6.3-0.3
					c-0.1,0.1-0.2,0.2-0.2,0.2l1.4,3.6c-8.3-5.5-3.8-1-8.7-2.8c-0.9,1.4-2.6,3.1-4.1,4.4c-3.2-7.1-9.5,2.3-14,4.5
					c-6.4,3.2-14.6,3.5-20,9.7c-0.1-0.1-0.1-0.2-0.2-0.3c-2.1,1.1-4.7,3.2-6.2,4.2c-2.7,1.9-20.2,15.1-19.3,17.7
					c0.2,1-9.7,17.7-11.9,19.4c0,0,0,0,0,0c-2.2,5.1-9,23-13.4,24.8c0.6-3.7-0.5,2.2-0.7,1.7c1.1,6.4-1.9,12.7-2.4,19.7
					c2.4-0.6,6,31.8,10,35.6c1.3,2.3,1.3,4.8,3.1,7.1c0,0,0-0.1,0-0.1c1.5,6.1,4.1,17.1,8.6,21.2c-0.8,0.5,3.1,3.3,3.6,3.9
					c-3.3,3,21.9,26.8,27.4,27c4.3,2.1,5.8,5.7,9.4,8.7c3.8,3.1,11,5.4,16,6.2c3.9,0.6,7,1.1,11.3,1.6c3.1,0.4,13.9-0.1,15.9,1.4
					c1.3-1.6,5.5-1.3,7,0.1c2.5,0.5,9-0.8,11.1,1.3c1.3-0.8,4,0,5.1,1.1c1-2,4.8-2,5.6,0.4c4.2-0.2,8.2,0.5,11.8-0.9
					c3.3,3.8,18.5,1.7,23.9,1.6c4.9-0.1,16.1,3.4,20.1-0.4c2.6,3.3,13.3,1.7,17.8,1.4c8.3-0.6,16.5-1.4,25-1.4
					c7.3,0,15.3-0.9,23-0.9c1.9,0,21.2-1.4,22.5,1l1.9-2.3l1.3,2.1c7.7-3.3,24.2-0.4,32.5-0.3c5.6,0.1,10.7,0.5,15.8,0.5
					c10.5,0,21.5,0,31.3,0.8c4.7,0.4,18.1,1.5,21.5-2c7,3.2,18.1-1.9,23.9,2.4c2.4-2.3,18.9-2.6,21.6-2.6c7.5,0.1,16.3,1.1,23.2,2
					c2.4-1.2,11.5,0.5,14.2,0.5c5.6,0,11.5,0.2,17-0.2c-1.7-0.5-4.3-0.8-5.7-2.1c2.4,0,5.7-0.7,8.1-0.1c-0.2,0.6-0.3,1.1-0.5,1.7
					c0.7,0.8,1.4,0.9,1.9,0.3c-0.5-0.5-1-1.4-1.2-2c5.9,0.2,11.8-0.1,18,0.5c-0.5,1.2-1.9,1.7-3.1,1.8c4.3,1.3,10.9-1.4,15.7-0.8
					c4,0.5,7.5,0.6,11.3,1.1c10,1.3,20.3-1,30.3-0.4c5.6,0.3,12.2,0.9,17.7,0.9c4.1,0,11.7,0.7,15.7,0.2c3.5-0.5,6.2-2.1,8.2-1.4
					c0.3-0.4,0.5-1,0.6-1.5c1.5-0.9,2.6-0.8,3.1,0.3c1.4-0.8,9,1.2,11.4,1.1c2.7-0.1,14.6,1.6,15.8-0.1c2.1,0.9,3.9,0.6,6.1,1.1
					c0,0.1,0,0.2,0,0.3c3.6,0.4,2.1,3,4.4-1c4,1.4,16.3,1.7,19-1.4l-1.5-0.5c1.2-0.8,1.8-0.5,1.8-2l1.1,0c-0.2,0.6-0.3,1.2-0.5,1.8
					c0.7-0.2,1.3-0.2,2,0.1c1.1-0.2,3.2-0.4,4.2-0.4c4.3-2.6,10.7-1.8,15.3-4.4c-1.2,0.5-2.3,0.1-3.3-0.9c4.8,0.1,9.5-3.4,14.1-4.1
					c0.1,0.5-0.1,0.9-0.6,1.1c1.2-0.4,15.1-4.2,15.3-4.1c0.2,0.9-0.1-2.8,0.1-3l-0.4-0.4l2.7-1.4l-0.2-0.2c2.9-2.2,8.7-5.8,10.4-9.1
					c0.3,0.5,0.7,1.1,1.1,1.6c0.5-0.3,1.7-7.7,4.6-5.4c0.6-0.7,1.2-1.4,1.9-2c-0.1-0.1,7.2-10.3,7.7-10.5c-0.1-1.3,0.7-1.6,2.1-0.7
					c2.4-4.7,5.5-10.4,8.6-14.7c0,0,0,0,0,0C785.5,307,788.3,300.8,789.7,299.7z M684.2,352.2c-5.4-1.9-12.7-2-17.9,0.3
					c-0.2-0.1-10.2-1.9-10.7-1.3c-1.7,0.5-6.1,1.7-7.9,0.6c-6.5,5.1-37.8-6.9-39.2,0.6c-4.6-5.3-17.1-2.5-23.6-3.2
					c-5.8-0.6-13.6-1.3-19.3,1.3c-18.6,0.3-38.1-2.9-57.9-2.3c-7,0.2-14,0.8-20.9,0.7c-5.3-0.1-16.3,0.9-20.7-2.3
					c-6.1,5.7-25.7,0.1-32.9,0.2c-9.2,0.2-18.4,3.2-27.7,2.6c-10.1-0.7-20.1-2-30.7-1.7c-8.3,0.2-28.2-3.1-34.4,1.8
					c-1.3-0.1-4.4,0.2-5.6-0.6c-0.6,0.1-4.6-0.9-6.6-0.9c-5.1,0.1-12.2,3.5-17.1,1.9c-1.1,1.7-2.4,0.8-3.2-0.4
					c-3.8,2.5-9.6-1.5-13.3,2c-4.7-3.4-10,1.1-13.8-1.2c-0.1,0.2-1.9-0.3-1.7-0.2c-3.9,1.4-8.9-0.1-12.6,1.1
					c-3.5-2.3-12.8-1.2-17.2-0.6c-8.2-2-18.3-1-27.1-1.2c-11.2-0.3-23.6,0.5-35.2-0.5c-19.2-1.7-38.6,0.2-56.3-3.2
					c-15-2.9-33.6-14.9-45.4-25.2c-6.7-5.9-9.1-10.6-13.7-18.2c-2.8-4.7-9.7-12.5-9.9-18.2l-0.8-0.1c0.1-3.3-2.5-5.9-2.7-9.5
					l-0.5,0.5c-0.2-0.6-0.2-1.2-0.2-1.6c-0.2,0.1,0.1-12.8,0.1-14.4c0.1-4.3-1.4-5,1.6-10.2l-0.3-0.1c0.1-1.6,0.5-3,1.3-4.4
					c0.3-1,0.4-3.1-0.7-4.6c2-2.9,5.5-5.7,2.8-9.1c3.2-1.6,7-9.9,8.9-13.1l-0.9-0.9c2.5-2.6,3.9-8.5,6.7-10.4l-0.4-0.6l0.2-0.1
					c-0.1-2.4,1.8-3.4,3.8-5.2l1,1.8c-0.4-8.2,18.7-12.8,22.1-19.9c4.8-1.4,21.9-13.3,26.3-11.7c-0.7,0.3,2.1-0.5,2-0.1
					c6.2-3,15.1-3,21.9-3.3c8.8-0.4,17.3-3.6,26-4.3c6.5-0.5,12.8,2.2,19.4,2.3c6.8,0.1,15.8-1.1,22-3l0,0c1.5-0.1,3.4,0.3,4.7,1.2
					c1.9-2.8,3.8-1.6,5.6,0.8c2.2-0.8,21.8,0.5,23.4,1.6c1.6-1.2,22.7-3.8,24-2.4c2.9-1.2,43,0.5,43.5,1.6c0.6-0.1,0.9-0.5,1-1.2
					c1,1,2.1,1.2,3.1,0.7c1.6,1.9,2.7,0.7,4.7-0.3c4,3.5,25.8,3.5,29.2,0.4c5.2,4.7,24.9-1.1,32.1-0.1c5,0.7,8.3,1.6,13.6,1.7
					c2.4,0,10-1.1,11.7,0.6c13.4-6.5,33.7,7.3,46.5-0.1c3.9,2.9,15.4,0.9,20.3,0.8c8.3-0.3,16.6-0.7,24.8-1.4
					c10.9-0.9,22,0.1,32.7-0.4c4.5-0.2,18.8-1.5,21.9,1c3.6-4.3,20-1,25.4-0.8c6.4,0.3,19.1-0.7,24.1-3c4.5,2.7,13.6,1.2,18.6,1.2
					c1.9,0,12.9-1.1,14.2,0.7c4.1-3.9,22.3,0.5,27.4,0.8c5.5,0.3,15.4,1.5,19.5-2.5c1.7,2.7,4.5,3.1,7.7,2.6
					c7.3,4.6,19.3,6.3,27.1,10.3c6.3,3.2,19.5,7.9,22.3,15.5l0.1,0c0.3,4.5,7.6,9.2,10.3,13.1c3.2,4.6,5.8,9.3,8.8,13.8
					c3,4.3,4.9,8.2,6,13c0.5,2.5,0.7,4.8,1.2,7.5c0.3,1.9,1.3,5.6,1.2,7.5c2,0.7,1,12.3,1,14.1c0.5,1.2,0,2.7-0.7,3.7
					c-0.5,4-3.1,10.2-1.9,14.7c-2.4,2.4-2.1,6.8-3,10.3c-1.4,5.2-1.2,4.4-3.9,8.8c-3.5,5.7-8.7,10.3-10.8,16.2
					c-3.8,4.3-5.7,10.4-10.6,14.1c-4.1,3.1-12.9,10.7-17.6,11.4l0,1.1c3-1.9-2.4,1.3-2.3,1.1C724.8,347,688.2,355.7,684.2,352.2z
					 M56.7,266.5c0,0.7-0.4,1.2-0.9,1.6c0.1-0.7,0.3-1.4,0.9-2C56.7,266.2,56.7,266.3,56.7,266.5z M56.6,294
					c3.2-2.7,5.9-3.3,7.3,0.8l-3-1l0,0.5c-0.9-0.6-1.5-0.4-2.6-0.8c0.2,0.9,0.3,1.8,0.1,2.7L56.6,294z M63,297.3
					c-0.8,0.5-1.6,0.6-2.5,0.4l0.4-0.4l-0.1,0.1l2-1.7l0.7,1.3L63,297.3z M58.5,279c-0.2-0.3-0.4-0.6-0.6-0.9l0.2-0.1L58.5,279z
					 M50.4,286.1c-0.4-1.5,0.2-6,3.3-4.2c0.1-1.6,1.2-2.8,2.5-3.2l0.2,0.3l0.1-0.1c1.1,1.6,3.6,7.2-1.1,6c0.1,2.2-2.8,3.2-4.4,2l0,0
					C50.8,286.7,50.6,286.5,50.4,286.1z M151.6,362.7c-0.4,0-0.9,0-1.2-0.2c0.7-0.2,1.6-0.2,2.4,0
					C152.3,362.6,151.8,362.7,151.6,362.7z M487,365.1l0.3,0.3l-0.1,0.1L487,365.1z M546.8,367.9c-1.5,1.2-2.6,1-3.5-0.5
					c1.9-1,3.2-0.9,4.1,0.2L546.8,367.9z"/>
			</g>
		</g>
	</g>
	<g id="EIsmYi_1_">
		<g>
			<path class="st2" d="M287.6,5.9c3.5,0,2.3,0.5,4.2,3.2c1.2,1.6,1.7,3.4,2,5.4c0.4,2.5,1.7,4.9,2.6,7.3c0.3,0.6,0.8,0.7,1.1,0
				c0.3-0.7,1.1-1.3,0.6-2.2c-0.1-0.2-0.1-0.6,0-0.8c1.8-3.7,0.7-7.8,2-11.6c0.8-2.3,6.8-5,6.3-1.2c-0.3,2.1,3.2-0.5,1.5,2.1
				c-0.3,0.5-0.5,1.1-0.6,1.7c-0.2,1.8-0.3,3.7-0.6,5.6c-0.1,0.6-0.5,1.1-0.8,1.7c-0.5,1-0.9,1.9-0.3,3.1c0.2,0.4,0.2,1.1-0.1,1.5
				c-1.9,2.6-1.8,5.8-2.7,8.7c-0.3,1-0.4,2.1-0.6,3.2c-0.6,3-2.7,2.5-5.2,2.8c-1.4,0.2-2.3-0.2-3-1.6c-0.5-1.1-1.3-1.9-1.4-3.3
				c-0.1-1.2-1-2.3-1.4-3.5c-0.7-1.7-1.3-3.5-1.9-5.2c-0.2-0.8-0.7-1.4-1.4-1.8c-0.1,0.2-0.1,0.3-0.2,0.5c-0.6,3.1-1.2,6.1-1.9,9.2
				c-0.4,1.7-0.8,3.5-1.1,5.2c-0.2,1-0.7,1.4-1.6,1.5c-2.3,1.1-4.3,0.9-5.9-0.6c-0.9-1.7-1.5-3.7-3-5.1c-0.2-0.2-0.4-0.7-0.4-1
				c0.3-3.1-2-5.3-2.6-8.1c-2.1-1.4-1.9-3.8-2.5-5.8c-0.8-2.5-2.1-4.7-3.2-7.1c-0.8-1.6,12.3-3.7,10.9,6.6c1.4,1,1.3,2.9,2.1,4.2
				c0.9,1.3,0,2.6,1.1,3.9c1.2-1.7,1.7-3.7,1.5-6c0.2-0.7,0.4-1.4,0.9-1.9c0.6-0.7,0.4-1.1,0.3-1.9c-0.4-2.5,0.3-5,1.1-7.4
				C284.6,6.1,286,5.7,287.6,5.9z M300.1,23.7c0.3-0.4,0.6-0.7,0.8-1c-0.3-0.2-0.6-0.6-0.9-0.6c-0.3,0-0.6,0.4-0.9,0.7
				C299.4,23.1,299.7,23.3,300.1,23.7z"/>
			<path class="st2" d="M370.6,508c-0.4,0-0.7,0.1-1.1,0.1c-4.1,0.2-2-4.8-4.1-6.9c-1-1-1.4-1.9-0.9-3.3c0.2-0.7-0.2-1.6-0.3-2.4
				c-0.1-1-0.7-2.1,0.9-2.6c0.2-0.1,0.5-1,0.4-1.3c-0.4-0.7,0-1.1,0.2-1.7c0.1-0.3-0.1-0.9-0.3-1.1c-0.1-0.2-0.7-0.1-1,0.1
				c-0.3,0.2-0.5,0.6-0.6,1c0,0.3,0.3,0.7,0.3,1c0,0.2-0.3,0.5-0.4,0.5c-0.4,0-0.8-0.2-1.2-0.3c-0.3,1.3-0.7,2.6-1,3.9
				c-0.1,0.6,0.1,1.4-0.2,1.8c-2,2.1-2.3,4.8-3,7.4c-0.2,0.7-0.4,1.4-0.8,2c-1.3,2.4-2.1,2.9-4.7,2.1c-1.7-0.5-3-1.4-3.7-3.4
				c-1-2.7-1.2-5.5-2-8.2c-0.2-0.6,0.1-1.4,0-2.1c0-0.4,0-1-0.3-1.2c-1-0.7-1.2-1.3,0.1-1.9c0,0-0.2-0.7-0.2-0.7
				c-1.4,0.3-1.6-0.7-1.9-1.7c-0.9-3.3-1.8-6.6-2.8-9.8c-0.2-0.8-0.7-1.6-1.1-2.3c-0.5-0.8-0.2-1.4,0.7-1.5c0.4,0,0.9,0,1.3,0.2
				c1.4,0.6,2.7,0.8,4.2,0.5c1.2-0.2,1.9,0.3,2.3,1.4c0.3,0.8,0.4,1.6,0.7,2.3c0.5,1.4,0,3,1.4,4.1c0.1,0.1,0.2,0.3,0.2,0.5
				c-0.7,3.4,1.4,6.2,1.7,9.4c0,0.2,0.1,0.3,0.2,0.5c0.2-0.2,0.4-0.3,0.5-0.5c0.3-0.8,0.6-1.7,0.9-2.6c0.2-0.6,0.3-1.3,0.6-1.8
				c0.5-0.7,1.4-1.1,1.7-1.9c0.9-2.6,0.9-6.5,1.8-9.3c0.3-1,1-1.6,2.2-1.6c1.3,0.1,2.5,0.1,3.8,0.1c1.2,0,2,0.4,2,1.7
				c0,2.6,1.7,4.8,1.7,7.4c0,2.1,1.3,4,0.6,6.2c-0.1,0.2,0.4,0.6,0.5,0.9c0.2,0.4,0.4,0.9,0.6,1.4c0.1,0.3,0.2,0.7,0.4,1.1
				c0.3-0.3,0.6-0.6,0.8-1c0.5-1.4,0.9-2.9,1.4-4.3c0.2-0.6,0.5-1.1,0.9-1.6c0.1-0.2,0.5-0.5,0.5-0.5c-1.1-1.4,0.4-2.5,0.3-3.8
				c-0.3-2.3,1-4.1,2.1-5.9c0.2-0.3,0.6-0.7,1-0.8c2.1-0.1,4.1,0,6.2,0c0.9,0,1,0.5,0.8,1.3c-0.3,1.3-0.5,2.6-0.7,3.9
				c-0.2,0.9-0.5,1.6-1.6,1.2c-0.2-0.1-0.7,0.3-0.7,0.4c0.8,2.3-0.4,4.2-1,6.2c-0.3,0.9-0.7,1.8-0.7,2.6c0.1,1.2-0.2,2.1-1.1,2.9
				c-0.3,0.2-0.6,0.6-0.6,0.9c0.4,3.1-2.4,5.1-2.9,7.9c-0.2,1.1-0.7,2.5-1.5,3.1c-0.8,0.6-2.2,0.2-3.4,0.3
				C370.6,508.2,370.6,508.1,370.6,508z"/>
			<path class="st2" d="M180.9,482.9c0.1,0.6,0.1,1,0.2,1.3c0.9,2.5-1.7,3.6-3.5,3.4c-1.1-0.1-2.2-0.2-3.2-0.5
				c-1.1-0.3-1.6-1-1.3-2.3c0.4-1.9,1.1-3.8,0.6-5.8c-0.1-0.3,0.2-0.6,0.4-1c0.2-0.4,0.6-0.8,0.5-1.2c-0.3-3.1,1.3-5.8,1.7-8.8
				c0.4-3.1,1.2-6.3,1.7-9.4c0.4-2.3,0.8-2.3,3.1-2c3.1,0.5,5.1,1.5,6,5c0.6,2.3,1.4,4.7,3.3,6.6c0.9,0.9,1,2.8,1.4,4.2
				c0.4,1.3,0.7,2.6,1,3.9c0,0.1,0.3,0.2,0.4,0.2c0.1,0,0.4-0.2,0.4-0.3c0.2-1.1,0.7-2.5,0.3-3.4c-0.7-1.8,0-2.9,1.1-4.1
				c0.6-0.7,0.8-1.2,0.7-2.3c-0.2-1.9,0.4-3.9,0.8-5.8c0.1-0.3,0.8-0.7,1.2-0.7c1.4,0.1,2.9,0.3,4.3,0.6c1.3,0.3,1.6,0.8,1.3,2.1
				c-0.9,3.8-0.9,7.8-2.1,11.6c-0.3,1.1,0.2,2.4-1,3.3c-0.1,0.1-0.1,0.5-0.1,0.7c-0.1,1.5-0.1,3-0.4,4.5c-0.4,2.1-0.9,4.2-0.6,6.4
				c0.2,1.7-0.5,2.3-2.2,2.1c-1.4-0.2-2.8-0.5-4.2-0.7c-1.7-0.3-2.3-3.6-3.8-3.5c-0.1,0-0.3-0.7-0.2-0.9c0.7-1.1,0.2-2.1-0.3-3.1
				c-1-2.1-1.3-4.5-3.1-6.2c-0.6-0.6-0.5-1.3,0-2c0.2-0.4,0.4-0.8,0.6-1.2c-1.3-0.6-1.8-1.8-2.4-3c-0.2,0.1-0.4,0.2-0.5,0.4
				C182.3,475.2,181.6,479.1,180.9,482.9z M198.6,476.3c-0.5-0.8-1.1-0.7-1.6,0.2c0.2,0.2,0.5,0.6,0.6,0.6
				C197.9,476.9,198.2,476.6,198.6,476.3z M198.6,479c-0.4-0.3-0.6-0.5-0.8-0.5c-0.3,0.1-0.6,0.4-0.8,0.6c0,0,0.3,0.5,0.3,0.5
				C197.8,479.5,198.1,479.3,198.6,479z"/>
			<path class="st2" d="M429.5,14.4c0,3.4,0,6.8,0,10.3c0,1.3-0.2,2.6,0.6,3.9c1.1,1.8-2.1,4.4-3.7,3.4c-0.5-0.3-1.2-0.7-1.7-0.7
				c-2.2,0.2-3.2-1.2-4.2-2.8c-0.9-1-1.8-2.1-2.5-3.3c-1.3-4.2-4.1-7.7-6.2-11.5c-0.1-0.1-0.3-0.2-0.4-0.3c-0.1,0.2-0.4,0.4-0.4,0.6
				c0,3.1-0.3,6.3,0.1,9.4c0.3,2,0.4,4,0.5,6c0.2,2.1-0.6,2.7-2.6,2.3c-0.5-0.1-1-0.2-1.6-0.3c-0.7-0.1-1.5,0.1-1.6-1
				c0-0.1-0.5-0.3-0.5-0.2c-2.2,1.9-1.2-2-1.8-2.8c-0.9-1.2-0.4-2.4-0.2-3.6c0.8-4.6,0.9-9.2,0-13.9c-0.1-0.4-0.1-0.9,0-1.3
				c0.6-2.6,0.9-5.1,0.1-7.7c-0.1-0.2,0.5-0.7,0.7-0.7c1.4-0.1,6.3-1,7.4,0.7c2.6,4.2,5.2,8.3,7.8,12.5c0.7,1.1,1.3,2.3,2,3.4
				c0.1,0.2,0.4,0.2,0.6,0.3c0.1-0.2,0.3-0.5,0.3-0.7c0-3.1,0.1-6.1,0.1-9.2c0-2,0-3.9,0.1-5.9c0-0.4,0.6-1,0.9-1
				c1,0,2.1,0.1,3.1,0.5c0.6,0.3,0.8,0.2,1.4,0c1.4-0.6,1.8-0.4,1.8,1.1c0,2.7,0,5.4,0,8.1c0,1.4,0,2.9,0,4.3
				C429.7,14.4,429.6,14.4,429.5,14.4z M409.5,11.4c-0.1,0-0.1,0-0.2,0c0.5-1.1,0.3-2-0.7-2.6c-0.7-0.1-0.7,0.5-0.7,1.1
				c0.1,0.7,0,1.4,0,2.1c0,0.5,0.2,1,0.4,1.5c0.5,0.5,0.9,0.4,1.2-0.2C409.6,12.6,409.5,12,409.5,11.4z M411.7,7.6
				c-0.3-0.2-0.7-0.5-0.7-0.5c-0.3,0.3-0.6,0.6-0.9,0.9c0.2,0.2,0.6,0.6,0.7,0.5C411.2,8.4,411.4,8,411.7,7.6z M410.8,6.2
				c0.2-0.5,0.4-1,0.6-1.4c-0.2-0.1-0.6-0.3-0.6-0.2c-0.3,0.3-0.5,0.6-0.6,1C410.1,5.7,410.5,5.9,410.8,6.2z"/>
			<path class="st2" d="M173.2,33c0.4,1-1.8,4.3-0.4,4.9c0.4,0.2,0.9,0.4,1.1,0.7c2,3.1,5.1,4.7,2.9,9.9c-0.7,1.7-8.8,6.7-8.6,5.4
				c-0.3,1.9-9.9,2.3-10.9,1.8c-4.4-2.2-7.3-17.3-7.7-22.6c-0.5-6.8-0.7-5,4.1-7.4C160,22.7,174.7,22,173.2,33z M169.6,46.3
				c0,0.8-0.2,1.4-1,1.7c-0.1,0,0,0.4,0,0.6C170.2,47.8,171.2,47.4,169.6,46.3c0.6-2.2-1.9-5-1.2-5.8c0.6-1.2,0.1-1.7-1.4-1.6
				c-0.3,0-0.7,0.6-0.8,0.9c-0.3,1.2,1.2,2.4-0.6,2.7c-1,0.2-2.1,0.3-3.1,0.6c-2.4,0.6-2.4,0.6-1.9,2.9c0.1,0.6,0.2,1.3,0.4,1.8
				c1,2,5.8,0,6.7-0.8C168.1,46.6,169,46.5,169.6,46.3z M158.6,31.1c-1.5,2.5-0.2,5.3,2.2,6.5c0.5-1.4,1.9-1,2.9-1.4
				c2.1-0.7,2.8-1.8,2.2-3.5c-0.7-1.8-2.3-2.4-4.1-1.7C160.8,31.4,159.9,33.2,158.6,31.1z"/>
			<path class="st2" d="M444.9,501.8c-0.1-4.7-0.2-9.5-0.4-14.2c0-0.5-0.3-1-0.5-1.5c-0.1-0.5-0.5-1.2-0.3-1.5
				c1.2-1.8-0.1-3.5-0.2-5.3c-0.1-1.6,0.1-1.9,1.6-2.1c1-0.2,2.1-0.7,3,0.3c0.3,0.3,1,0.2,1.6,0.2c2,0,3.9-0.2,5.9-0.2
				c0.4,0,0.8,0.5,1.2,0.7c0.2,0.1,0.5,0.1,0.8,0.2c0.2-2.1,1.6-0.7,2.4-0.7c3.2,0.1,5.5,2.2,7.7,4.2c0.4,0.3,0.6,1.2,0.5,1.6
				c-0.9,2.4,2.6,5.8-0.3,7.6c-0.7,0.5-1,1.6-1.5,2.5c-0.5,0.7-0.9,1.5-1.5,2.1c-0.9,1-0.9,0.9,0.2,2c1.3,1.3,1.9,4,2.8,5.6
				c1.1,1.2,1.8,2.6,2,4.3c-0.9,0.2-1.9,0.2-2.7,0.6c-4.2,2.2-7-2.2-8.3-5.2c-0.7-1.7-1.4-3.5-2.1-5.1c-0.7-1.6-2.3-0.8-3.4-0.8
				c-1.2-0.1-1.2,1.1-1.1,2c0.1,1.1,0.1,2.3,0.4,3.4c0.1,0.5,0.1,5.1-0.8,5.6c-1.9,0.9-3.9,0.6-5.8,0.3c-0.3,0-0.7-0.8-0.7-1.3
				c-0.2-1.8-0.3-3.5-0.5-5.3C444.8,501.8,444.8,501.8,444.9,501.8z M456,490.3c0,0.1,0,0.2,0.1,0.2c1.6-0.4,3.2-0.9,4.8-1.3
				c0.7-0.2,0.8-0.5,0.6-1.2c-0.1-0.4-0.2-0.9-0.4-1.3c-0.5-1.9-1.9-3.2-3.6-2.7c-1.7,0.5-3.4,0.6-5,0.9c-1.4,0.3-0.7,4-0.3,4.6
				c0.5,0.7,2.1,0.5,3.2,0.7C455.7,490.4,455.8,490.3,456,490.3z M462.1,500.2c-0.5-0.4-0.8-0.8-1.1-0.8c-0.2,0-0.5,0.5-0.7,0.8
				c0.3,0.2,0.6,0.6,0.9,0.7C461.3,500.9,461.6,500.5,462.1,500.2z M460.9,501.8c-0.4,0.3-0.7,0.6-0.7,0.6c0.3,0.4,0.6,0.8,1,1.1
				c0,0,0.5-0.4,0.5-0.4C461.5,502.7,461.2,502.3,460.9,501.8z"/>
			<path class="st2" d="M409.4,476.9c2.6,0.3,4.9,0.6,7.3,0.7c1.4,0.1,2.5,0.8,3.6,1.5c1,0.6,2,1.3,2.8,2c0.8,0.6,1.8,1.2,0.8,2.6
				c-0.4,0.5,0.8,1.7,1.5,1.3c1.9-1.1,1.4,1.7,1.4,2.5c0,0.3-0.1,0.8,0,0.9c1.9,0.9,1.6,2.7,1.8,4.4c0.5,5.2-2.2,10.5-6.3,13.5
				c-2.8,2.1-5.8,3.5-9.4,3.5c-0.6,0-1.2,0.4-1.8,0.4c-1.5,0-3,0.2-4-1.4c-0.3-0.5-1.1-0.6-1.6-0.9c-1-0.6-2-1.1-3-1.7
				c-0.6-0.3-1.2-0.7-1.8-1.1c-0.6-0.4-1.5-0.9-1.5-1.4c-0.3-3-2.6-5.3-2.6-8.3c-0.1-4.6,0.8-8.9,4-12.4c1.4-1.6,2.9-2.9,4.9-3.7
				c0.5-0.2,1-0.5,1.2-1C407.3,476.8,408.5,477,409.4,476.9z M404.8,500.8c0,0.1-0.2,0.6-0.2,1.1c0,0.4,0.3,0.9,0.6,1
				c0.3,0.1,0.8-0.2,1.2-0.3c0.1,0,0.2-0.3,0.2-0.5c0.1-1.4,0.8-1,1.6-0.6c0.8,0.5,1.5,1.1,2.4,1.2c5.6,0.9,10.3-2.9,10.6-8.6
				c0-0.4-0.1-0.9-0.3-1.3c-0.6-1.7-1.1-3.4-1.7-5.1c-0.2-0.6-0.4-1.3-0.8-1.6c-1.7-1.3-3.6-2.5-5.9-2.4c-4.6,0.2-7.8,3.2-8.1,8
				C404.3,494.7,404.7,497.5,404.8,500.8z"/>
			<path class="st2" d="M574.3,27.7c-0.2-3.9,0.6-6.4,1.5-8.8c0-0.1,0-0.2,0.1-0.2c2.2-1.5,2.8-4.4,5.3-5.8c1.3-0.7,2.3-2.1,3.7-2.6
				c1.4-0.5,3-0.2,4.5-0.2c8-0.3,15.4,5.5,16.5,13.2c0.8,5.8-0.9,10.7-4.9,14.9c-0.4,0.4-0.6,0.8-1,1.2c-0.7,0.7-1.4,1.8-2.1,1.8
				c-3.5,0.1-6.8,1.8-10.5,0.9c-5.2-1.2-9-4-11.5-8.5C574.5,31,574.4,30.4,574.3,27.7z M581.8,26.2c0.3,3.9,0.9,7.3,4.9,8.7
				c1.1,0.4,0.9,2.9,3,1.6c1.1-0.7,2.5-0.8,3.8-1.2c0.2-0.1,0.4-0.3,0.7-0.4c1.5-0.8,1.7-2.4,2.6-3.5c1.4-1.7,1.3-3.4,1.3-5.2
				c0-0.3-0.1-0.7,0-1c0.7-4.2-3.1-8.5-7.5-8.4C585.6,16.9,581.9,20.7,581.8,26.2z M588.3,13.6c-0.5,0.4-0.9,0.6-1.2,0.9
				c0.4,0.5,0.8,1.1,1.2,1.6c0.4-0.4,1-0.8,1.1-1.2C589.4,14.5,588.7,14,588.3,13.6z M589.4,12.4c-0.8-1.4-1.6-1.6-2.5-0.7
				C586.8,13.2,588.7,12.6,589.4,12.4z M601.8,31.1c-0.5,0.5-0.9,0.7-1.2,1.1c0.5,1.3,1.1,1.2,1.8-0.2
				C602.4,31.8,602.1,31.5,601.8,31.1z M581,31.3c-0.4,0.6-0.6,0.9-0.6,1c0.3,0.5,0.7,0.9,1.1,1.3c0,0,0.3-0.1,0.4-0.2
				C581.7,32.8,581.4,32.2,581,31.3z"/>
			<path class="st2" d="M542,26.2c-0.3,3.5-0.6,6.9-1,10.4c-1.9,1.5-4,1.3-6.3-0.6c-1.3-0.4-1.8-1.7-1-3c0.6-0.8,0.6-2.2,2-2.2
				c0-0.4-0.1-1.1-0.1-1.1c-1.5,0.1-1.2-0.9-1.1-1.8c0.3-3.5,0.7-7,1-10.5c0-0.2,0.1-0.4,0-0.5c-0.2-2.2-0.6-4.5,0.5-6.7
				c0.2-0.4-0.1-1.2-0.3-1.8c-0.4-2,0.6-3.4,2.6-3.3c1.9,0.1,3.7,0.4,5.6,0.5c2.3,0.2,4.7,0.3,7,0.6c4.7,0.7,8.6,4.4,8.5,9.3
				c-0.1,3.8-1.4,7-4.9,8.9c-0.9,0.5-1.5,0.8-0.2,1.6c0.4,0.2,0.8,0.8,0.8,1.3c-0.1,2.5,1.3,4.4,2.1,6.6c0.3,0.8,0.7,1.7,1,2.5
				c0.6,1.3,0.3,2.2-1,2.1c-1.4,0-2.9-0.3-4.1-1c-1.6-0.9-3.5-1.7-3.9-4c-0.2-0.9-0.8-1.8-1.4-2.6c-1.1-1.5-1.8-2.9-0.9-4.7
				c0.4-0.7,0.1-1.3-0.3-2c-1-2.1-2,0.9-3.7,0.1c-0.8-0.4-1.2,0-1.1,0.9C541.8,25.6,541.9,25.9,542,26.2z M546.2,12.7
				C546.2,12.7,546.2,12.7,546.2,12.7c-0.6,0-1.3,0-1.9,0c-0.7,0-1.4,0.1-1.3,1c0.1,1.3-1,3.1,0.4,3.9c1.6,0.9,3.4,1.8,5.5,1.7
				c1.7-0.1,2.9-0.8,3.2-2.5c0.3-1.6-0.4-2.8-2-3.3C548.9,13,547.6,12.9,546.2,12.7z M541.3,30.4c-1.1-1.1-2.1-1.1-2.8,0.2
				c-0.2,0.6,0.7,1.3,1.5,1C540.4,31.4,540.7,31,541.3,30.4z M545.1,9.7c-0.1-0.2-0.3-0.4-0.4-0.7c-0.7-0.7-1.1-0.6-1.4,0.1
				c0.2,0.3,0.5,0.7,0.8,0.8C544.4,10,544.8,9.8,545.1,9.7z M540.3,10.2c0.4-0.4,0.8-0.7,0.7-0.8c-0.1-0.3-0.4-0.6-0.7-0.9
				c-0.2,0.2-0.5,0.5-0.5,0.7C539.8,9.4,540.1,9.7,540.3,10.2z M535.9,16.1c0.4,0.3,0.8,0.7,0.9,0.6c0.3-0.2,0.5-0.6,0.7-0.9
				c-0.3-0.2-0.5-0.5-0.8-0.5C536.5,15.4,536.3,15.8,535.9,16.1z"/>
			<path class="st2" d="M243.3,482.4c-0.3,3.4-1.7,8.4-6.7,11.7c-2.3,3.3-5.7,2.4-8.8,2.2c-3.5-0.2-7-1.2-10.6-1.7
				c-1.2-0.2-1.5-0.8-1.4-1.8c0.7-4.7,1.4-9.4,2.1-14.1c0.2-1.5,0.6-3,1.6-4.2c-1-1.4-0.6-2.8-0.3-4.3c-0.8-3.1,0-5.3,2.5-6.4
				c1.2,0.3,2.5,0.4,3.7,0.6c1.8,0.2,1.8,0.2,2,2.1c0.4,2.4,1.8-1,1.7-0.8c0.3-0.7,1-1,1.5-0.5c1,0.8,1.9,1,3.3,1
				c1.2-0.1,2.6,1,3.7,1.9C241.8,471.1,243.6,475.2,243.3,482.4z M236.1,480.1c0.2-4.6-1.3-6.6-5.5-7.8c-0.9-0.2-1.7-0.5-2.6-0.6
				c-1.3-0.2-1.8,0-1.8,1.2c0,0.9,0.1,6.4-0.5,7.4c-1.2,1.9-1,4.2-1.6,6.2c-0.4,1.3,0.2,1.9,1.3,2.2c3,0.8,7.6,0.3,9.4-2.7
				C235.8,484.1,236.3,482.1,236.1,480.1z"/>
			<path class="st2" d="M364.4,23.1c0-3.4,0.3-6.8-0.1-10.2c-0.5-3.8,0.5-7.6-0.8-11.3c-0.3-0.8,0.5-1.1,1.1-1.1
				c1.1,0,2.3-0.1,3.4,0c5.6,0.6,11.1-0.1,16.7-0.2c2.1-0.1,2.1-0.1,2.1,2c0,0.5,0.1,1,0.2,1.5c0.2,2.2-1,3.5-3.1,3.6
				c-1.1,0-6.6-1.6-6.5-1.6c-0.2,0-0.5,0.3-0.5,0.5c0.1,1.2-0.7,1.2-1.6,1.3c-0.6,0.1-1.4-0.1-1.8,0.2c-0.8,0.5-1.9,0.9-1.8,2
				c0.2,2.2,1.2,3.5,2.9,3.5c2.5,0,5-0.1,7.6-0.1c2,0,2.1,0,2.2,2c0.1,1.2,0.1,2.5,0,3.8c-0.1,0.9-0.5,1.3-1.7,1.1
				c-2.3-0.4-4.5-0.6-6.8,0.5c-0.6,0.3-1.7-0.3-2.5-0.5c-1.1-0.2-1.6,0-1.5,1.1c0.2,4.2-0.7,3.9,3.7,3.8c3,0,5.9-0.2,8.8-1
				c2.2-0.6,2.8-0.1,3,2.1c0.1,1.2-0.2,2.5,0,3.7c0.4,2.6-5.6,1.9-6.1,1.9c-3.6,0.3-6.4,0.1-9.9,0.2c-7.7,0.1-6.4,1.2-6.8-6.5
				c0-0.8,0-1.6,0-2.4C364.5,23.1,364.4,23.1,364.4,23.1z M370.4,26.4c0.3-0.3,0.5-0.4,0.5-0.5c0.6-1.2,0.6-2.2-0.1-3
				c-0.1-0.1-0.4,0-0.4,0.1c-0.3,0.6-0.8,1.3-0.8,1.9C369.5,25.3,370.1,25.8,370.4,26.4z"/>
			<path class="st2" d="M199,48.9c-6.1,0.4-4.8-3.9-5.6-9.2c0-0.2,0.7-2.2,0.7-2.2c-0.9,0-1.1-0.4-1.2-1.1c-0.2-1.6-1.2-3.1-0.2-4.7
				c0.1-0.1,0.1-0.4,0-0.5c-1.6-2.7-1.4-5.9-2.3-8.7c-0.3-0.9-0.6-1.8-0.9-2.8c-0.3-0.9-0.1-1.3,0.9-1.4c5.9-0.8,11.9-1.7,17.8-2.6
				c2-0.3,3-1.2,4,1.1c0.7,1.6,0.1,3.5,1.3,4.9c0,0-0.5,0.7-0.7,0.7c-1.7,0.1-3.4,0-5,0.2c-2.7,0.3-5.3,0.8-8,1.3
				c-1.9,0.4-2,0.8-1.3,2.8c0,0.1,0.1,0.2,0.1,0.3c0.9,2.8,1.1,3,3.9,2.2c1.8-0.6,3.5-1.2,5.5-0.8c0.7,0.1,5.5-2.1,4.5,0.8
				c-0.6,1.6,0.1,3,0.5,4.4c0.3,1.1,0.2,1.5-1,1.4c-2.1-0.1-4.1,0.2-6.1,1.1c-0.4,0.2-0.9,0.2-1.3,0c-0.5-0.2-1.2-1.1-1.3-1
				c-0.9,0.6-1.9,1.4-2.6,2.3c-0.7,0.8-0.2,2.3,0.9,2.7c1.4,0.6,2.9,0.9,4.4,0.9c0.9,0.9,1.6,0.4,2-0.3c0.8-1.4,1.9-1.6,3.4-1.3
				c1,0.2,2.1,0.1,3.2,0c1.1,0,1.7,0.5,1.9,1.5c0.2,1.1,0.4,2.3,0.6,3.4c0.4,2.8-11.7,3.5-13.6,3.8c-1.4,0.7-2.9,1.1-4.5,1.2
				C199.1,49.1,199,49,199,48.9z"/>
			<path class="st2" d="M338.7,14.9c2.1-0.1,6.2-1.4,6.4,1.8c0,0.6,0,1.3,0,1.9c0.2,2.4-0.6,3.1-3,3c-2.7-0.1-5.4,0-8,0.2
				c-2.8,0.2-1.9,5.3,1.8,4.8c4.1-0.6,6.9-0.9,11.2-0.4c0.5,0.1,1.1,0.7,1.2,1.1c0.2,1.1,0.3,2.3,0.2,3.5c-0.1,2.6-2.1,1.7-3.8,2.6
				c-1.7,0.3-3.5,0.3-5.2,0c-4.1,1-8.4-0.1-12.5,0.7c-2-1.1-2.5-3.1-1.3-5.9c0.1-0.8,0.5-1.3-0.2-2.1c-0.7-0.8-0.3-1.3,0.7-1.3
				c0.4,0,0.9,0.2,1.3,0.3c0.1,0,0.2-0.1,0.2-0.2c0-0.1,0-0.3-0.1-0.4c0-0.1-0.2-0.1-0.2-0.1c-2.2-0.4-2.5-1.9-2.5-3.8
				c0-1.5-0.2-3.1-0.2-4.6c0-1,0.2-2.1,0.4-3.1c0-0.2,0.4-0.6,0.4-0.7c-0.6-0.8,1-3.6,0.9-3.6c-2.6,0.2-2.2-1.7-2.3-3.3
				c0-0.1,0-0.2,0-0.3c0-1.7,0.1-1.8,1.8-2c2.8,0.2,5.5-0.2,8-1.4c2.6-0.1,10.7-0.9,12.6-0.1c1,0.4,0,1,0,1.6c0.1,1.3,0.1,2.7,0.2,4
				c0.1,0.9-0.3,1.4-1.1,1.5c-1.7,0.2-3.4,0.3-5.1,0.4c-2.3,0.1-4.7,0.2-7,0.3c-2.1,0.2-1.7,1.5-1.6,3.1c0.1,2.4,0.4,2.7,2.9,2.6
				C336.2,14.9,337.4,14.8,338.7,14.9C338.7,14.8,338.7,14.9,338.7,14.9z"/>
			<path class="st2" d="M485.4,499.9c0-0.4,0-0.9-0.1-1.3c-0.9-3.1-0.4-6.3-0.6-9.5c-0.2-3.1-0.3-6.3-0.5-9.4c0-0.3,0-0.5,0-0.8
				c0.1-2.5,0.1-2.5,2.7-2.6c4.3-0.1,4.4-1.1,4.7,4.1c0.1,1.4,0.2,2.9,0.3,4.3c0,0.4,0.2,0.9,0.3,1.3c0.3-0.3,0.6-0.5,0.9-0.8
				c2-2.7,5.3-9.8,9.5-9.6c1.7,0.1,3.4-0.2,5.1-0.3c0.9,0,1.2,0.4,0.6,1.2c-1.3,1.8-2.6,3.6-4,5.4c-1,1.4-2.1,2.6-2.6,4.3
				c-0.3,0.8-1.1,1.5-1.8,2.2c-0.6,0.6-0.7,1.1,0,1.5c1.9,1.3,3.1,3,3.9,5.2c0.5,1.4,1.6,2.5,2.5,3.8c0.7,1,1.4,2.1,2.3,3
				c0.6,0.7,1.5,1.2,2.2,1.8c0.5,0.5,1,1,1.4,1.6c1.7,2.8-8.8,0.4-9.2,0.2c-0.4-0.2-0.9-0.5-1.1-0.9c-1.9-2.8-3.8-5.7-5.7-8.5
				c-0.5-0.6-0.8-1.6-2.1-1.2c-1.6,0.6-1.9,0.7-1.5,2.5c0.5,1.9,0.8,3.8,1,5.7c0.1,1.2,0.2,2.4,0.2,3.6c0,0.2-0.4,0.6-0.6,0.7
				c-1.8,0.1-3.6,0.1-5.4,0c-1.4,0-1.7-0.3-1.8-1.7c-0.2-1.9-0.3-3.8-0.4-5.6C485.4,499.9,485.4,499.9,485.4,499.9z M504.5,504.8
				c0.8-0.3,1.5-0.6,2.2-0.8c-0.6-0.3-1.2-0.5-1.8-0.8c-0.3-0.1-0.7-0.3-1-0.3c-0.3,0-0.6,0.3-0.8,0.5c-0.1,0.1,0.1,0.6,0.2,0.7
				C503.7,504.5,504.1,504.7,504.5,504.8z"/>
			<path class="st2" d="M694.8,450.8c0.1,0.4,0.3,1.4,0.5,2.3c0.2,0.6-0.1,1-0.7,1.2c-1.6,0.4-3.1,0.9-4.7,1.2
				c-2.4,0.5-4.7,1-7.1,1.6c-2.1,0.5-2,0.6-1.5,2.7c0.4,1.4,0.7,2.8,1.1,4.2c0.1,0.3,0.5,0.6,0.8,0.6c0.2,0,0.7-0.4,0.7-0.6
				c0-0.8,0-1,1-1c0.8,0,1.6-0.7,2.4-1c2-0.5,4-1,6-1.4c0.7-0.2,1.3,0.1,1.2,1c-0.1,1.5-0.7,2.8-0.5,4.4c0.1,1.2-1.3,2-2.5,2.1
				c-1.4,0.7-2.9,1.2-4.4,1.3c-0.8,0.1-1.6-0.1-2.4,0.1c-0.5,0.1-1.1,0.6-1.5,1.1c-0.6,0.7,0.1,1.1,0.5,1.6c0.2,0.4,0.4,0.8,0.6,1.2
				c0.4,0.8,0.8,0.7,1.8,0.7c3.8-0.3,7.3-1.6,11-2.3c1.8-0.3,3.4,1.3,2.9,3.2c-0.2,0.7,0,0.9,0.3,1.4c0.8,1.1,0.7,1.4-0.5,1.8
				c-0.9,0.3-1.9,0.5-2.9,0.7c-1.7,0.3-3.3,0.7-4.8,1.6c-0.7,0.4-1.6,0.8-2.3,0.7c-2.8-0.5-5.3,0.6-7.9,1.2c-0.3,0.1-0.5,0-0.8,0.1
				c-2,0.3-2,0.3-2.5-1.6c-1.7-7.3-3.5-14.7-5.2-22c-0.4-1.7-0.7-3.3-1.2-5c-0.2-0.7,0-1,0.6-1.2c1.1-0.3,2.3-0.5,3.4-0.9
				c1.1-0.4,2.1-0.8,3.1-1.4c1.8-1.1,3.8-0.2,5.7-0.6c0.6-0.1,1.2-0.1,1.8-0.2c2-0.5,3.9-1.2,5.9-1.6
				C694,447.6,694.8,448.5,694.8,450.8z M680.5,473.5c0.1-0.3,0.2-0.4,0.2-0.5c0.3-0.6,0.2-1.1-0.5-1.2c-0.7-0.2-1.2,0.2-1.2,1
				c0,0.8-0.3,1.6-0.2,2.3c0.1,0.5,0.6,0.9,0.9,1.4c0.4-0.5,1-0.9,1.2-1.5C681,474.5,680.6,473.8,680.5,473.5z M684.5,467.8
				c-0.4-0.7-0.7-1.3-1.1-1.8c-0.1-0.1-0.5,0.1-0.7,0.1c0.1,0.6,0.2,1.3,0.4,1.9c0.1,0.2,0.4,0.4,0.6,0.6
				C684,468.4,684.2,468.1,684.5,467.8z M693.3,462.6c-0.4-1-0.8-1.3-1.4-0.6c0.1,0.3,0.3,0.7,0.6,1
				C692.5,463,692.9,462.8,693.3,462.6z"/>
			<path class="st2" d="M303.3,504.6c-4.3-0.5-4.3-0.5-5.5-4.7c-1-3.6-1-3.6-4.6-3.9c-1.2-0.1-2.3-0.3-3.5-0.4
				c-2-0.1-2.7,0.3-3.5,2.1c-0.4,0.8-0.6,1.7-1,2.5c-0.4,0.8-0.9,2.3-1.5,2.3c-1.6,0.2-3.3,1-5,0c-1-0.1-1.5-0.5-1.7-1.5
				c0.3-0.9,0.8-1.8,1.2-2.7c0.4-0.9,0.8-1.8,1-2.8c0.4-2.1,1.2-4,2.1-5.9c0.3-0.6,0.3-1.4,1.2-1.6c0.4-0.1,0.8-0.7,1-1.2
				c0.9-2.2,2.4-4.2,2.6-6.8c0-0.4,0.1-1,0.4-1.2c2-1.6,2.6-4,3.7-6.1c0.5-0.9,1-1.2,1.9-1.1c1.6,0.1,3.2,0.3,4.8,0.6
				c0.4,0.1,0.9,0.6,1.1,1c0.4,0.9,0.6,1.9,0.9,2.8c0.1,0.3,0,0.6,0.1,0.8c1.7,1.9,1.3,4.3,1.8,6.5c0,0.1,0.1,0.2,0.1,0.3
				c-0.2,1.7,2,2.4,1.8,4.3c-0.2,1.5,0.3,3.1,0.6,4.7c0.3,1.5,0.7,2.9,1.1,4.4c0.4,1.6,1,3.1,1.4,4.6
				C306.7,504.7,306.4,505,303.3,504.6z M294.1,482.7c-0.1-0.3-0.3-0.6-0.4-0.9c-0.3,0.3-0.8,0.5-0.9,0.8c0,2.1-0.8,3.9-2.4,5.3
				c-0.1,0.1-0.2,0.3-0.2,0.5c0,0.4-0.1,1,0.1,1.3c0.1,0.2,0.8,0.1,1.2,0c0.7-0.4,1.3-0.5,2-0.1c0.2,0.1,0.9,0,0.9-0.2
				c0.4-0.9,1.2-1.3,2-1.6c0.1,0,0-0.8-0.2-1c-0.2-0.2-0.7,0-1-0.1c-1.5-0.3-1.8-0.7-1.4-2.2C293.8,483.8,294,483.3,294.1,482.7z"/>
			<path class="st2" d="M148.7,449.1c1.3,0.2,2.1,0.2,2.9,0.4c3,0.5,3.6,1.1,4,4.2c0.3,2.8,0.5,5.5,0.8,8.3c0.1,0.7,0.2,1.5,0.6,1.9
				c0.8,0.9,0.8,1.7,0.5,2.7c-0.1,0.5-0.5,1.2-0.3,1.5c0.9,2,0.1,4.2,1.2,6.2c0.4,0.7,0.1,1.7,0.1,2.6c0.1,1.9,0.2,3.8,0.4,5.6
				c0.1,0.8-0.1,1.2-1,1c-1.8-0.4-3.5-0.8-5.2-1.2c-0.9-0.2-1.1-0.8-1.2-1.6c-0.1-1.5-0.3-3-0.4-4.6c-0.1-1.9-0.2-2-2.1-2.5
				c-1.9-0.5-3.9-0.9-5.8-1.4c-2.6-0.6-4.4,3.3-4.6,5.2c-0.1,0.8-0.4,1.2-1.6,1.3c-1.1,0-7.9-0.8-6.4-3.1c1.8-2.9,3.6-5.8,5.5-8.6
				c0.8-1.2,0.8-2.6,1.5-3.7c0.6-1,2-1.5,2.6-2.5c1.2-2.1,3-3.9,3.5-6.3c0.1-0.6,0.7-1,1-1.5c0.8-1,1.6-2,2.4-2.9
				C147.7,449.8,148.3,449.4,148.7,449.1z M150.4,467c0-2.3-0.4-4.6-1.4-6.7c-0.7,0.8-1.6,1.6-2.2,2.6c-2.3,4-2.2,4,2.2,4.8
				c0.1,0,0.2,0.1,0.2,0.1C150.1,467.9,150.4,467.5,150.4,467z M137.2,473.8c-0.8,0.6-0.9,1.1-0.3,1.8c0.2-0.2,0.6-0.4,0.6-0.7
				C137.6,474.7,137.4,474.3,137.2,473.8z"/>
			<path class="st2" d="M673.3,25c-0.4,2.3-0.8,4.3-1.2,6.4c-0.5,1-0.6,1.9-0.2,2.8c0.2,0.1,0.6,0.1,0.7,0c2.5-1.9,5-3.8,7.4-5.8
				c2.7-2.2,2-2.4,5.5-1.4c2.8-0.6,4.3,0.2,4.5,2.2c-1.9,1.7-4.1,3-5.9,5c-2.9,3.1-5.1,2.4-5.8,6.5c-0.6,3.8,5,12.6,6.6,16.3
				c0.5,1-3.3,5.3-3.4-1.6c0-0.6,0-1.3-0.2-1.8c-0.1-0.3-0.7-0.4-1.1-0.4c-0.2,0-0.5,0.5-0.6,0.7c-0.1,0.6,0,1.2-0.1,1.9
				c-1.1,1.9-2.1,2.1-3.1,0.5c-0.2-2.3-3.1-14.6-5.6-12.5c-0.9,0.7-1.3,1.5-1.6,2.7c-0.4,1.5-0.2,3.3-2,4.2
				c-0.2,0.1-0.2,0.6-0.1,0.9c0,0.2,0.5,0.4,0.4,0.6c-0.1,0.8-0.1,1.6-0.5,2.2c-0.4,0.5-6-0.3-4.9-0.6c-1.3,0.3-1.8-0.3-1.6-1.7
				c1.2-9,3.9-18,5.7-26.9c0.1-0.4,0.1-0.9,0.3-1.3c0.3-0.7,1.3-0.7,1.7,0c0.2,0.3,0.1,0.7,0.3,1c0.2,0.3,0.5,0.4,0.8,0.6
				c0.9-2,0.9-2.4,3.5-1.3C672.9,24.4,673.1,24.8,673.3,25z"/>
			<path class="st2" d="M488.2,30.6c0-0.1-0.2-0.7-0.4-1.2c-1-1-1.5-2.3-1.6-3.8c-0.6-0.9-2.2,0.2-2.9-1c0-0.1-0.7,0-0.9,0.1
				c-0.8,0.7-1.7,0.8-2.7,0.5c-2.2-0.5-2.9,0.1-3.4,2.3c-0.1,0.3-0.2,0.6-0.1,0.8c0.5,1.7-0.7,2.3-1.9,2.9c-0.4,0.2-0.9,0.6-1.1,1
				c-0.7,1.4-5.6,1.3-5.7-0.7c-0.1-1.6,0.9-5.3,1.9-6.4c0.7-0.7,0.8-2,1.1-3c0.5-1.7,0.9-3.4,2.2-4.8c0.7-0.7,0.9-1.9,1.2-2.9
				c0.5-1.5,0.8-3,2.9-2.7c1.5,0.2-0.5-2.3-0.4-2.4c1.4-2,1.3-4.5,2.5-6.6c1.1-1.8,1.1-0.3,2.8-0.7c2.3-2,4.2-2.2,5.7-0.6
				c-1.5,2.8,3.9,14.6,4.8,17.2c0.7,1.3,1.3,2.7,1.9,4.1c0.3,1.4,0.4,2.8,0.8,4.2c0.2,0.9,0.5,1.8-0.8,2.1c-0.2,0-0.2,0.5-0.4,0.8
				c0.3,0.1,0.7,0.3,0.9,0.2c0.9-0.9,1.2-0.1,1.5,0.6c0.2,0.6,0.3,1.2,0.3,1.8c0,0.5-0.1,1.3-0.4,1.4c-0.7,0.2-1.8,0.5-2.2,0.1
				c-1-1-2-0.9-3.2-0.7C488.5,33.5,488.1,33.1,488.2,30.6z M482.2,19.2c0-0.1,0-0.2,0-0.2c0.3,0,0.5,0,0.8,0.1
				c2,0.2,2.3-0.2,1.7-2.1c-0.4-1.2-0.6-2.3-1.1-3.4c-0.2-0.5-0.9-1.1-1.3-1c-0.6,0.1-1.2,0.7-1.7,1.1c0,0,0,0.4,0.1,0.4
				c1.4,0.6,0.6,1.2,0.1,2c-0.5,0.8-0.6,1.9-0.9,2.9C480.7,18.9,481.5,19,482.2,19.2z M480,4.5c1.1,0.4,1.9,0.2,2.5-0.7
				c-0.3-0.2-0.7-0.6-1-0.5C481.1,3.4,480.8,3.9,480,4.5z"/>
			<path class="st2" d="M572.1,468.9c1.3,0.2,3.2,0.3,5,0.7c3.6,0.7,5.4,3.4,6.5,6.6c1.1,3.3,0.4,6.4-1.6,9.2
				c-0.4,0.6-0.7,1.4-1.8,1.4c-0.3,0-0.7,0.6-1.1,1c-1.1,1.1-1.7,1.2-3.2,0.6c-0.3-0.1-0.9-0.1-1.1,0.1c-1,1.3-2.4,1.3-3.9,1.4
				c-1.5,0.1-1.6,0.1-1.6,1.7c0,1.6,0.2,3.2,0.4,4.8c0.1,1.2,0.3,2.3,0.4,3.5c0.1,1.5-0.3,1.8-1.9,1.5c-0.3-0.1-0.7-0.4-1-0.3
				c-1.6,0.4-2-0.1-1.6-1.6c0.1-0.2-0.2-0.6-0.4-0.8c0-0.1-0.5,0.1-0.6,0.3c-0.3,0.4-0.6,0.9-0.9,1.3c-0.2,0.3-0.3,0.5-0.4,0.8
				c-0.2-0.3-0.4-0.6-0.4-0.9c-0.4-3.3-0.8-6.6-1.2-9.9c-0.2-1.1-0.5-2.2-0.8-3.3c-0.1-0.3-0.3-0.7-0.3-1c0.6-2.4,0.1-4.6-0.7-7
				c-0.6-1.7-0.5-3.6-0.2-5.6c0.5-2.7,0.3-2.7,3-3.2c1.6-0.2,3.1-0.5,4.6-1.2C568.5,468.5,570.1,468.9,572.1,468.9z M571.3,482.8
				c0.5,0,1.3-0.1,2-0.1c1.1,0,1.8-0.5,2-1.6c0.1-0.4,0.3-0.8,0.5-1.2c0.6-1.3-0.2-2.2-1-3c-1.9-1.8-3.3,0.9-5.6-0.1
				c-1.2-0.5-1.6,0-1.4,1.3c0.7,1.6,1,3.2,0.8,4.8c0.6,0,1.2,0,1.8-0.1C570.6,482.8,570.9,482.8,571.3,482.8z"/>
			<path class="st2" d="M620.6,494c-2.3,0-2.2-0.1-3.3-2.2c-0.8-1.6-1.9-3-2.7-4.6c-0.5-0.9-1.7-1.7-0.6-3.1
				c0.6-0.7-0.3-1.3-0.8-1.8c-0.1-0.1-0.4-0.1-0.5-0.1c-0.1,0.1-0.2,0.3-0.1,0.5c0.1,1.3,0.2,2.6,0.3,3.9c0,0.3-0.4,0.8-0.7,0.8
				c-1.7,0.3-3.3,0.6-5,0.7c-1.3,0.1-1.9,0.5-2.1,1.9c-0.2,1.6-0.6,3.2-1.1,4.7c-0.2,0.6-0.6,1.5-1.1,1.6c-1.8,0.4-3.7,0.6-5.5,0.9
				c-0.9,0.1-1.1-0.4-0.9-1.2c0.5-1.6,1.1-2,0.9-3.9c-0.2-1.6-0.3-3.1,0.9-4.5c0.2-0.2,0.2-0.5,0.2-0.8c-0.2-2.3,0.8-4.3,1.4-6.4
				c0.4-1.4-0.3-3.1,0.1-4.1c0.5-1.2,1.3-2.3,1.5-3.6c0.5-2.5,0.9-4.9,1.4-7.4c0.1-0.6,0.3-0.9,1-1c1.6-0.2,3.2-0.5,4.8-0.7
				c1.1-0.1,1.8,0.2,2.3,1.3c4.6,8.6,9.4,17.2,14.1,25.8c1.1,2,1,2-1.1,2.6C622.7,493.7,621.7,493.8,620.6,494z M607.7,473.8
				c-0.1,0.3-0.3,0.6-0.3,1c-0.1,1.2-0.1,2.5-0.2,3.7c0,0.5-0.5,1-0.4,1.4c0.2,0.6,0.6,1.1,1.1,1.5c0.8,0.7,2.3,0.6,3.2-0.1
				c0.2-0.2,0.3-0.6,0.2-0.9c-1-2.1-2-4.2-3-6.3C608.3,474,608,473.9,607.7,473.8z M605.2,481.3c-0.3-0.3-0.5-0.7-0.6-0.7
				c-0.8,0.2-1,0.6-0.4,1.1C604.5,481.7,604.8,481.5,605.2,481.3z M605.2,478.6c-0.4-0.2-0.7-0.5-1-0.5c-0.1,0-0.3,0.3-0.5,0.5
				c0.2,0.2,0.4,0.5,0.7,0.6C604.6,479.2,604.9,478.9,605.2,478.6z"/>
			<path class="st2" d="M535.7,472.6c2.1-0.8,4,0.6,6.1,1.1c1.3,0.3,1.6,0.9,1.2,2.2c0,0.1-0.1,0.2-0.1,0.3c-0.4,1.2-0.5,3-1.4,3.6
				c-0.9,0.5-2.5-0.1-3.8-0.3c-2.4-0.4-4.8-0.7-7.1,0.6c-0.9,0.5-1.5,0.9-1.5,2c0,1.1,0.7,1.7,1.6,2c2,0.6,4.1,1.1,6.2,1.7
				c1.8,0.5,3.6,1,5.2,1.9c3.2,1.8,4.1,5,4.5,8.4c0,0.3,0,0.6-0.1,0.8c-1.4,1.9-1.9,4.6-4.2,5.7c-2.1,1-4.3,1.9-6.6,2.2
				c-2,0.3-4.3,0.7-6.3-0.6c-0.2-0.1-0.7,0.1-1,0.1c-2,0.3-3.1-1.1-4.3-2.3c-0.1-0.1,0.1-0.5,0.2-0.8c0.2-0.4,0.6-1.2,0.5-1.3
				c-1-0.9,0-1.5,0.1-2.2c0.2-1,0.5-1,1.5-0.7c3.4,1.2,6.8,1.6,10.3,0.7c1.3-0.3,2.3-1.3,2.3-2.6c-1-2-2.8-2.9-5.4-2.7
				c-3.1-0.7-6.1-1.5-8.9-3.1c-0.4-0.2-0.9-0.4-1.1-0.7c-2.2-3.2-2.2-9.3,0.2-12.5c0.7-0.9,1.9-1.7,3-2.1
				C529.7,472.9,532.5,472.1,535.7,472.6z M543.6,489.8c-0.5-0.3-0.8-0.6-0.9-0.5c-0.4,0.3-0.8,0.7-1.1,1c0,0,0.4,0.5,0.4,0.5
				C542.4,490.5,542.9,490.2,543.6,489.8z M535.5,488.5c-0.3,0.5-0.7,0.8-0.6,1c0.2,0.3,0.5,0.6,0.9,0.8
				C536.6,489.7,536.6,489.2,535.5,488.5z"/>
			<path class="st2" d="M634.8,473.1c0-1.8,0-3.6,0-5.4c0-0.3,0.1-0.8,0.4-1c1.8-1.1,2-3.3,3.7-4.5c0.4-0.2,0.8-0.7,0.8-1
				c0.3-2.8,2.6-2.3,4.3-2.6c0.6-0.1,1.1,0.4,1.6-0.5c0.5-0.9,1.4-1.2,2.5-0.6c0.4,0.2,1.2,0.2,1.3,0.1c0.5-1.1,1.4-1,2.3-0.9
				c1.8,0.1,3.6,0.1,5.3,0.5c1.6,0.3,1.7,0.6,1.4,2.3c-0.4,2.1-0.4,4.5-3.1,4.2c-1.8-0.2-3.6-0.3-5.4-0.3c-0.5,0-1,0.2-1.4,0.6
				c-0.7,0.6-1,1.8-2.4,1.2c-0.1,0-0.5,0.3-0.6,0.5c-0.3,1.3-1,2.3-2.2,2.8c0.5,1.7-1.9,2.8-0.8,4.6c0.1,0.2-0.2,0.8-0.3,1.2
				c-0.1,0.3-0.2,0.7,0,1c1.2,2,2.5,4.1,3.8,6.1c0.1,0.1,0.7,0.2,0.9,0c0.8-0.5,5.3,1.1,6.6,0.8c1.6-0.4,3.2-1.2,4.7-1.9
				c1.6-0.8,1.8-0.9,3,0.4c1.6,1,2.3,2.2,2,3.7c-1,0.8-1.6,2.3-3.3,1.4c-0.1-0.1-0.7,0.3-0.7,0.3c0.3,1.4-0.9,1.5-1.6,1.8
				c-2.5,0.8-5,1.2-7.6,1c-3.9-0.2-7.1-1.8-10-4.2C636.4,481.6,634.6,477.8,634.8,473.1z"/>
			<path class="st2" d="M638.5,49.7c-4.7-0.2-8.5-1.3-11.6-4.2c-2.6-2.3-4.8-4.9-5.4-8.4c0-0.2,0-0.4-0.2-0.5
				c-1.4-1.4-1.5-2.7,0-4.1c0.2-0.2,0.2-0.7,0.2-1c-0.7-6.1,3.8-7.3,7-10.4c0.9-0.9,1.5-2.1,2.8-2.7c0.8-0.3,1.6-0.8,2.4-1.2
				c0.5-0.2,1.3-0.6,1.5-0.5c1.8,1.6,3.8-1,5.5,0.3c1.9,1.4,4.1,1.7,6.2,2.3c2.5,0.7,3.3,2.5,1.9,4.5c-0.7,1-1.3,2.4-2.3,2.8
				c-0.7,0.3-2-0.8-3-1.4c-4.7-2.6-11.4-1.6-13.6,3.8c-2,4.8-1.1,9,3,12.6c2.6,2.2,7.3,1,10,0.9c0.4,0,1.1,0.3,1.3,0.6
				c0.6,1,1.1,2.1,1.5,3.1C646.7,49.1,637.4,49.9,638.5,49.7z"/>
			<path class="st2" d="M234.6,18.7c-1.9,0.2-3.8,0.3-5.6,0.5c-0.9,0.1-1.3-0.3-1.4-1.2c-0.2-1.4-0.5-2.8-0.8-4.2
				c-0.1-0.7,0.1-1,0.8-1.1c1-0.1,2.2,0.1,2.9-0.4c1.5-1,3-0.4,4.5-0.7c1.6-0.3,3.2-0.3,4.8-0.5c0.6-0.1,1.5,0,1.8-0.3
				c2.4-2.5,5-0.3,6.8,0.8c0.6-1.2,2.5-3.6,3.7-0.9c0.2,0.6,0.4,1.2,0.6,1.8c1.6,6.6-6.4,2.3-8.6,6.2c-0.1,0.1,0,0.3,0.1,0.5
				c0.5,2.2,0.8,4.5,0.9,6.8c0.1,1.7,1.2,3.4,1.3,5.4c0,0.9,0,1.3-0.9,1.5c-0.2,0-0.3,0.9-0.2,1.1c1.5,1.5,1.2,3.5,1.2,5.3
				c0,3.3-6.6,4.2-7,0.5c-0.1-0.9-0.2-1.8-0.5-2.6c-0.9-2.1-0.7-4.1,0.1-6.1c0.1-0.3,0-0.6-0.1-0.9c-0.3-0.9-0.8-1.8-1-2.7
				c-0.4-1.4-0.7-2.8-1-4.2c-0.2-0.9-0.2-1.9-0.1-2.9c0.1-1.6,0.1-1.7-1.5-1.6C235.1,18.7,234.8,18.7,234.6,18.7
				C234.6,18.8,234.6,18.8,234.6,18.7z"/>
		</g>
	</g>
</g>
<path class="st2" d="M286.5,293.7c-1.8,0.8-4.3,2-6.9,3c-1.8,0.7-3.6,1.7-5.4,1.6c-7.1-0.3-14.3,0.2-21.5-1.3
	c-6.3-1.3-11.2-4.8-15.9-8.2c-4.4-3.1-8.6-7.3-10.2-13c-0.8-2.6-1.3-5.3-2.1-7.9c-0.5-1.7-1.4-3.3-1.9-5c-0.4-1.3-0.6-2.8-0.5-4.1
	c0.6-4.6,1-9.2,2.1-13.7c1.5-6.1,2.5-12.7,5.8-17.8c4.2-6.6,9.5-13.1,17.9-15.2c3.3-0.8,6.9-0.9,10.3-1.2c3.9-0.4,7.8-0.7,11.6-1.1
	c1-0.1,2.2-1.1,3-0.9c3.8,1,8.1-0.8,11.7,2.2c2.2,1.8,5.1,2.6,7.7,3.8c4.5,2.1,8.7,4.5,11.7,8.7c3.6,5.1,5.1,10.9,7.3,16.5
	c0.6,1.5,1.3,2.8,2,4.3c1.9,3.9,1.9,7.7,0.1,11.7c-0.5,1.1-0.3,2.4-0.4,3.6c-0.1,0.6,0,1.4-0.3,1.9c-2.6,5.2-4.9,10.6-8,15.5
	c-1.9,3-5.2,5.2-7.8,7.9c-0.9,1-1.4,2.4-2.4,3.2c-1.4,1.2-3,2.2-4.6,3.2C289,292,288,292.7,286.5,293.7z M272.4,281.7
	c0.6-0.4,1-0.8,1.6-1c2.2-0.7,4.5-1.3,6.8-1.9c1.2-0.3,2.6-0.2,3.7-0.7c3.2-1.7,5.6-3.7,7.6-7.2c1.8-3.3,2.3-6.7,2.3-9.9
	c0-5.1,0.3-10.4-2.4-15.2c-1.9-3.5-3.1-7.8-5.8-10.5c-5.8-5.7-13.5-6.8-21.3-6.5c-1.5,0.1-3.1,0.5-4.3,0.1c-1.9-0.7-3-0.2-4.2,1
	c-0.6,0.6-1.4,1.2-2.2,1.4c-5,1-7.8,3.7-7.9,9c0,0.9-0.5,1.7-0.8,2.6c-0.9,2.8-1.8,5.6-2.7,8.5c-0.5,1.6-0.8,3.2-1.2,4.8
	c-0.2,1-0.7,2-0.5,2.9c1.7,8,13.5,18.3,21.7,18C266.3,276.9,270.2,277.8,272.4,281.7z"/>
<path class="st2" d="M373.3,233.3c1.5,2.8,2.7,5.1,3.9,7.3c0.3,0.6,0.6,1.2,0.8,1.9c0.4,0.9,0.5,2.1,1.2,2.6
	c3.8,2.8,5.3,7.5,8.8,10.5c0.4,0.4,0.2,1.5,0.4,2.9c1.6,1.5,3.6,1,5.4-0.9c4.2-4.4,3.4-9.2,1.9-14.2c-0.1-0.3-0.2-0.6-0.3-0.9
	c-0.3-3.8-0.9-7.6-0.8-11.3c0-2.2,1.2-4.4,1.8-6.6c0.4-1.6,0.8-3.2,1-4.9c0.2-1.2,3.1-6,4.3-6.5c1.4-0.6,2.7-1.6,4.1-1.6
	c1.3,0,3.4,0.6,3.9,1.6c2,3.6,5.1,6.8,5.8,11.1c0.4,2.6,0.4,5.3,0.3,7.9c-0.2,4.6-0.6,9.2-0.8,13.7c-0.2,5.5-0.4,11-0.4,16.5
	c0,4.2,0.4,8.4,0.5,12.6c0.1,2.5-0.6,5-0.2,7.3c0.9,4.9-1.5,9.2-2,13.9c-0.2,2.2-1.4,3.4-3.2,4c-4,1.3-7.7,0.7-10.4-2.5
	c-4.5-5.5-8.4-11.5-12.6-17.2c-1.7-2.3-3.5-4.6-5.5-6.8c-2.7-3-5.8-5.6-8.3-8.7c-2.7-3.3-4.9-7-7.1-10.7c-1.4-2.4-3.1-2.9-5.2-1.1
	c-2.8,2.4-3.9,5.7-3.7,9.4c0.2,3,0.3,5.9,0.4,8.9c0.3,5.8,0.8,11.7,0.8,17.5c0,1.6-1.5,3.7-2.9,4.7c-2.4,1.7-5.2,3.1-8.1,4.1
	c-4.4,1.5-8.1-1.4-8.2-6c0-0.3,0-0.8-0.2-1c-3.4-3.4-1.1-7.4-1-11c0.2-6.2,1.1-12.3,1.8-18.4c0.2-2.1,0.9-4.3,0.9-6.4
	c0-5.7-0.4-11.4-0.5-17.1c0-1.4,0.4-2.7,0.6-4.1c0.1-0.9,0.6-1.9,0.2-2.7c-1.7-4-0.8-8.1-0.3-12.1c0.2-1.8,1.1-4.4,3.9-4.9
	c2.3-0.4,4.6-1.4,6.9-1.5c5.2-0.2,8.3,2.7,10.7,7.2c2.2,4.1,5.5,7.7,8.5,11.4C371.4,232.2,372.7,232.9,373.3,233.3z"/>
<path class="st2" d="M521.6,254c-0.3,5-0.7,10-1,15c0,0.3-0.1,0.8-0.3,0.9c-4.1,3-4.6,8-6.7,12.1c-1.4,2.8-3.5,5.2-5.4,7.7
	c-0.3,0.4-0.8,0.5-1.3,0.7c-4.8,1.9-9.8,3.6-14.5,5.8c-4.2,2-8.2,4.2-13.2,2.8c-1.6-0.4-3.4,0.5-5.1,0.4c-3.3-0.1-6.6-0.5-9.8-0.9
	c-2.8-0.3-5.5-0.5-8.2-1c-4.5-0.7-7.1-3.9-7.7-8c-1.2-7.6-2.2-15.3-2.5-23c-0.3-7.2,0.6-14.5,0.8-21.8c0-1.6-0.6-3.3-0.9-4.9
	c0-0.2-0.3-0.5-0.2-0.7c0.4-5.6,0.6-11.3,1.4-16.8c0.6-4.3,5.5-7.4,9.8-7.1c2.4,0.2,4.7-0.4,7.1-0.4c2.7-0.1,5.4,0.1,8.1,0.1
	c0.4,0,0.8,0.3,1.2,0.3c4-0.1,8-0.4,12-0.5c1.2,0,2.5,0.2,3.5,0.7c5.1,2.8,10.3,5.3,16,6.6c4.3,1,7.4,3.9,9.8,7.8
	c3.3,5.6,4.9,11.6,6.5,17.8c0.5,2,0.7,4.1,1,6.1C521.8,254,521.7,254,521.6,254z M465.2,270.5c-0.1,3.2,0.2,6.6,3.4,8.2
	c5.2,2.6,10.9,3.3,16.2,1.2c4.3-1.7,8.2-4.6,12.1-7.2c1.3-0.9,2.3-2.5,2.7-4c0.9-2.9,1-6,2-8.8c2.1-6,0.1-11.5-2.4-16.6
	c-1.3-2.8-4.2-4.8-6.4-7.2c-2.8-2.8-6.2-4.5-10.1-4.8c-3.4-0.3-6.9,0.1-10.4-0.1c-3.7-0.1-4.6,0.1-5.1,3.8c-0.9,6.8-1.6,13.6-2,20.5
	C465,260.5,465.2,265.5,465.2,270.5z"/>
<path class="st2" d="M661.8,278.2c-0.3,4-0.5,7.9-0.9,11.9c-0.2,2.3-0.2,4.7-1,6.9c-0.7,2-2.6,2.9-4.8,2.2c-2.2-0.7-4.5-1.3-6.7-2.3
	c-5.1-2.1-5.3-6.8-5.4-11.3c-0.1-4.3,0.5-8.6,0.2-12.8c-0.6-7.5-0.8-15,0.9-22.4c0.3-1.4,0-3-0.1-4.4c-0.3-6.1-1.2-12.2-0.7-18.2
	c0.3-3.7-0.3-8.3,3.5-11.2c0.7-0.5,1.7-1.3,2.5-1.2c3.3,0.4,6.5,1.1,9.7,1.5c4.7,0.6,9.4,1.8,14.1-0.3c1.1-0.5,2.5-0.6,3.7-0.4
	c4.2,0.5,8.4,1.2,12.5-0.7c0.6-0.3,1.4-0.4,1.9-0.1c3.1,1.6,6.1,3.2,9.1,5c5.4,3.3,8.6,8.5,10.8,14.3c0.8,2,1.3,4.1,1.7,6.1
	c0.4,1.8,0.3,3.7,0.8,5.4c1,3.2,1.3,6.2-1.1,9c-2,2.3-3,5.5-6.2,6.9c-1.3,0.5-2.3,2-3.4,3c-0.4,0.4-0.9,0.7-1.4,0.8
	c-3.8,1.3-5.4,4.8-3.7,8.5c0.5,1.2,1.3,2.4,2.2,3.3c2.5,2.5,5.3,4.7,7.7,7.3c1.7,1.8,3.1,4,4.1,6.3c0.7,1.5,0.5,3.3-1.5,4.5
	c-1.2,0.7-1.9,2.2-2.9,3.3c-2.5,2.8-5.1,2.8-7.6,0.1c-6-6.8-11.9-13.7-18-20.5c-3-3.4-6-7.2-10.8-7.9c-2.4-0.3-4.9,0-7.2,0.5
	c-0.9,0.2-1.8,1.7-2.1,2.7c-0.4,1.3-0.1,2.8-0.1,4.2C661.8,278.1,661.8,278.1,661.8,278.2z M675.4,255.7c1.8-0.3,4.7-0.6,7.6-1.1
	c4.2-0.7,8.1-1.4,10.7-5.7c2.7-4.5,2.9-7.6-1.7-10.2c-4.9-2.8-10-5.2-15.4-6.8c-3.5-1-7.6-0.3-11.4,0.1c-2.7,0.3-4.1,3.3-3.9,6.1
	c0.1,2.2,0,4.6-0.6,6.7c-1,3.4-0.4,6,2.6,8C666.6,255.1,670.4,255.7,675.4,255.7z"/>
<path class="st2" d="M598.8,231.9c-3.5-0.6-7.1-1.2-10.6-2c-5.3-1.1-10.6-0.9-15.7,1.2c-4.8,2-6.3,6-4.5,10.8
	c0.3,0.8,0.6,1.7,0.7,2.6c0.7,4.4,2.2,5.8,6.6,5.6c6.6-0.4,13.2-1.1,19.8-1.7c1.2-0.1,2.3-0.3,3.5-0.3c5.3-0.3,8,2.7,7.2,8
	c-0.5,3.7-3.6,6.9-8,7.3c-6,0.7-12,0.8-18,1.2c-3.5,0.3-7.1,0.6-10.6,1c-1.8,0.2-3.1,2.5-2.7,4.4c0.4,1.8,0.7,3.6,1.1,5.3
	c1.3,6.2,6.7,9.3,12.8,7.7c3.3-0.9,6.8-1.4,10.2-1.7c4.6-0.3,9.2-0.5,13.8,0.5c4.6,1,8.6,6.2,7.2,10.7c-0.4,1.4-2.2,2.8-3.6,3.3
	c-4.2,1.5-8.4,2.8-12.8,3.6c-3,0.5-6.2,0-9.3-0.1c-2.5-0.1-5,0-7.6-0.2c-1.9-0.2-3.8-0.9-5.7-1c-4.3-0.2-8.5-0.1-12.8,0
	c-5.2,0.1-7-1.4-8.8-6.2c-1.5-4-1.8-7.8-1.1-12.1c0.6-3.7-0.4-7.7-0.4-11.6c0-2.8,0.7-5.6,0.6-8.3c-0.2-3.5-1-7-1.2-10.6
	c-0.1-2.9,0.2-5.7,0.4-8.6c0.2-2.8,0.7-5.6,0.9-8.3c0.3-4.3,0.6-8.6,0.6-12.9c0-3.9,1.4-4.3,5.2-4.6c8.5-0.8,16.8,2.2,25.5,0.5
	c8-1.5,16.3-1.9,24.3,0.5c4.7,1.4,7.7,6.9,5.5,11.2c-1,1.9-3.6,3.3-5.8,4.1c-2,0.7-4.4,0.1-6.7,0.1
	C598.9,231.5,598.9,231.7,598.8,231.9z"/>
<path class="st2" d="M195.5,209.2c2.9,1.3,5.7,2.6,8.9,4c-0.8,0.5-1.2,0.7-1.7,1.1c2.7,1.3,3.9,3.4,2.8,5.9c-1.3,3.1-3.2,6-4.7,9.1
	c-0.6,1.2-0.8,2.6-1.3,3.9c-0.6,1.7-1,3.6-2,5.1c-2,3-4.2,5.8-6.5,8.5c-1.2,1.4-2.9,2.4-4.2,3.8c-3.1,3.5-6,7.2-9,10.8
	c-3,3.8-2.8,7.9-1.8,12.4c0.7,3.1,0.3,6.5,0.5,9.7c0.1,1.5,0.6,3,0.5,4.4c-0.1,3-0.4,6.1-0.7,9.1c-0.2,1.6-1.2,2.2-2.7,2.4
	c-1.8,0.2-3.6,0.5-5.4,0.9c-3.9,0.9-8.6-2.8-8.5-6.8c0.2-8.9-0.2-17.7-1-26.5c-0.2-1.9,1-3.9,1.6-6.2c-2-0.7-4.1-1-5.5-2.1
	c-1.8-1.5-3-3.7-4.5-5.6c-1.2-1.5-2.5-3.1-3.8-4.5c-1.2-1.3-2.5-2.5-3.7-3.8c-1.8-1.9-3.6-3.9-5.3-5.8c-0.8-0.9-1.6-1.8-2.2-2.9
	c-0.8-1.5-1.3-2.9-3.1-4c-4.2-2.8-6.2-9.5-3.9-13.7c1.8-3.3,4.8-6.3,9-7.2c0.4-0.1,0.8-0.3,1.1-0.3c1,0,2.4-0.2,2.9,0.3
	c2.4,2.6,4.7,5.4,6.8,8.4c0.8,1.1,0.6,3.2,1.6,4c5.8,4.5,8.1,11.1,11.3,17.3c1,1.9,2.8,3.4,4.4,4.9c0.4,0.4,1.7,0.6,2,0.3
	c2.1-1.8,4.6-3.5,6.1-5.7c4.9-7.4,9.3-15.1,14.2-22.4c1.9-2.8,4.9-4.9,7.3-7.4C195.4,210.5,195.4,209.9,195.5,209.2z"/>
</svg>
