<?xml version="1.0" encoding="utf-8"?>
<!-- Generator: Adobe Illustrator 21.0.2, SVG Export Plug-In . SVG Version: 6.00 Build 0)  -->
<svg version="1.1" id="Layer_1" xmlns="http://www.w3.org/2000/svg" xmlns:xlink="http://www.w3.org/1999/xlink" x="0px" y="0px"
	 viewBox="0 0 179.4 90.5" style="enable-background:new 0 0 179.4 90.5;" xml:space="preserve">
<style type="text/css">
	.st0{fill:#F7AAC9;}
</style>
<path class="st0" d="M137,79.5c13.5-5.6,26.3-10.8,38.3-17.3c0.5-0.3,1.1-0.6,1.6-0.9c3.4-2,3.3-6.9-0.2-8.7c0,0,0,0-0.1,0
	c-14.6-7.2-29.6-13.4-45.5-20C112.4,24.8,93,16.8,74.3,7c-7.9-4.2-18.8-8.6-25.8-6.4C42,2.7,36.4,11.7,32.9,18.9L29.4,26
	C21.2,42.7,12.8,60,1.2,75.8C1.1,75.9,1.1,76,1,76.1c-2.3,3.1-0.4,7.6,3.4,8.1c0,0,0.1,0,0.1,0c28.4,4,57,5,87.3,6
	c2.6,0.1,5.2,0.2,7.8,0.3c6.9,0.2,13.8-1,20.1-3.8h0C125.4,84.3,131.2,81.9,137,79.5z"/>
</svg>
