<?xml version="1.0" encoding="utf-8"?>
<!-- Generator: Adobe Illustrator 22.0.1, SVG Export Plug-In . SVG Version: 6.00 Build 0)  -->
<svg version="1.1" id="Layer_1" xmlns="http://www.w3.org/2000/svg" xmlns:xlink="http://www.w3.org/1999/xlink" x="0px" y="0px"
	 viewBox="0 0 200 200" style="enable-background:new 0 0 200 200;" xml:space="preserve">
<style type="text/css">
	.st0{fill:#E5AC45;}
	.st1{fill:#08948F;}
	.st2{fill:#FFA69D;}
	.st3{fill:#800030;}
	.st4{fill:#FF7D3B;}
	.st5{fill:#F7B955;}
	.st6{fill:#0DAB9E;}
	.st7{fill:#FFB5B3;}
	.st8{fill:#9E0542;}
	.st9{fill:#FF965E;}
	.st10{fill:none;stroke:#F8E2C9;stroke-width:2;stroke-miterlimit:10;}
</style>
<path class="st2" d="M108.1,137.1c-0.4,0-0.9,0-1.3,0l-5.5-0.2c-21.2-0.7-41.3-1.4-61.4-4.2c-3.3-0.5-5.9-2.5-7.2-5.5
	c-1.3-3-0.9-6.3,1-8.9l0.2-0.2c7.8-10.6,13.6-22.4,19.1-33.8l2.4-5c4.3-8.7,9-13.9,14.2-15.6c1.4-0.5,3-0.7,4.7-0.7
	c4.7,0,10.6,1.8,17.6,5.5c12.8,6.7,60.8,26.6,71.1,31.7c3,1.5,4.9,4.4,5,7.7c0.1,3.3-1.6,6.4-4.4,8.1c-0.4,0.3-0.9,0.5-1.3,0.7
	c-8.6,4.6-35.2,15.6-39.1,17.3C118.4,136,113.3,137.1,108.1,137.1L108.1,137.1z"/>
<path class="st7" d="M108.1,130.1c-0.4,0-0.7,0-1.1,0l-5.5-0.2c-21.1-0.7-40.9-1.4-60.7-4.2c-0.8-0.1-1.4-0.6-1.7-1.3
	c-0.3-0.7-0.2-1.5,0.2-2.1l0.2-0.2c8.2-11.1,14.1-23.2,19.8-34.9l2.4-4.9c4.5-9,8.2-11.4,10-12c0.7-0.2,1.6-0.4,2.5-0.4
	c2.5,0,6.9,0.8,14.3,4.7c7.6,4,27,12.4,44,19.8c11.9,5.1,23.1,10,27.3,12.1c0.6,0.3,1,0.9,1.1,1.7c0,0.7-0.4,1.4-1,1.8
	c-0.4,0.2-0.7,0.4-1.1,0.6c-6.8,3.6-26.2,11.8-34.5,15.3c-1.9,0.8-3.3,1.4-4,1.7C116.5,129.2,112.3,130.1,108.1,130.1z"/>
<path class="st10" d="M108.1,143.1c-0.5,0-1,0-1.5,0l-5.5-0.2c-21.4-0.7-41.6-1.4-62-4.3c-5.3-0.8-9.8-4.2-11.9-9.1
	c-2.1-4.9-1.5-10.5,1.7-14.8l0.2-0.2c7.5-10.2,13.1-21.8,18.6-32.9l2.4-5c5-10.2,11-16.5,17.7-18.6c2-0.7,4.2-1,6.6-1
	c5.7,0,12.6,2.1,20.4,6.2c7.2,3.8,26.3,12,43.1,19.3c12.6,5.4,23.4,10.1,27.9,12.3c4.9,2.5,8.1,7.4,8.3,12.9
	c0.2,5.5-2.6,10.7-7.4,13.5c-0.5,0.3-1,0.6-1.5,0.9c-7.3,3.9-26.5,12-35.7,15.8l-0.1,0.1c-1.8,0.8-3.1,1.3-3.8,1.6
	C120,141.9,114.1,143.1,108.1,143.1z"/>
</svg>
