<?xml version="1.0" encoding="utf-8"?>
<!-- Generator: Adobe Illustrator 21.0.2, SVG Export Plug-In . SVG Version: 6.00 Build 0)  -->
<svg version="1.1" id="Layer_1" xmlns="http://www.w3.org/2000/svg" xmlns:xlink="http://www.w3.org/1999/xlink" x="0px" y="0px"
	 viewBox="0 0 19.7 19.7" style="enable-background:new 0 0 19.7 19.7;" xml:space="preserve">
<style type="text/css">
	.st0{fill:#FAEFE1;}
</style>
<g>
	<path class="st0" d="M10.1,14.9c-2.8,0-5.1-2.3-5.1-5.1s2.3-5.1,5.1-5.1c2.8,0,5.1,2.3,5.1,5.1S12.9,14.9,10.1,14.9z M10.1,6.4
		C8.2,6.4,6.6,8,6.6,9.9c0,1.9,1.6,3.5,3.5,3.5c1.9,0,3.5-1.6,3.5-3.5C13.6,8,12,6.4,10.1,6.4z"/>
	<circle class="st0" cx="15.1" cy="4.5" r="1.1"/>
	<path class="st0" d="M6,19.7c-3.3,0-6-2.7-6-6V6c0-3.3,2.7-6,6-6h7.8c3.3,0,6,2.7,6,6v7.8c0,3.3-2.7,6-6,6H6z M6.7,1.4
		c-2.9,0-5.3,2.4-5.3,5.3V13c0,2.9,2.4,5.3,5.3,5.3H13c2.9,0,5.3-2.4,5.3-5.3V6.7c0-2.9-2.4-5.3-5.3-5.3H6.7z"/>
</g>
</svg>
